<svg width="25" height="26" viewBox="0 0 25 26" fill="none" xmlns="http://www.w3.org/2000/svg">
<path fill-rule="evenodd" clip-rule="evenodd" d="M6.25776 4.04875C8.00783 2.29868 10.9611 2.43172 12.1797 4.61518L12.8557 5.82656C13.6515 7.25242 13.3124 9.05146 12.1475 10.2306C12.132 10.2519 12.0497 10.3716 12.0395 10.5808C12.0265 10.8478 12.1212 11.4653 13.0779 12.4219C14.0343 13.3783 14.6517 13.4734 14.9189 13.4604C15.1282 13.4501 15.248 13.368 15.2693 13.3523C16.4484 12.1875 18.2475 11.8484 19.6733 12.6441L20.8847 13.3203C23.0681 14.5388 23.2011 17.492 21.4511 19.2421C20.515 20.1782 19.2703 21.0099 17.8076 21.0655C15.64 21.1476 12.0407 20.5879 8.47641 17.0235C4.91204 13.4591 4.35227 9.8599 4.43444 7.69226C4.48989 6.22956 5.32165 4.98486 6.25776 4.04875ZM10.8153 5.37664C10.1913 4.25856 8.51452 4.0017 7.36261 5.15361C6.55496 5.96126 6.02989 6.85273 5.99582 7.75146C5.92729 9.55911 6.37358 12.711 9.58126 15.9186C12.789 19.1263 15.9407 19.5725 17.7484 19.504C18.6472 19.4699 19.5386 18.9449 20.3462 18.1372C21.4981 16.9854 21.2412 15.3086 20.1232 14.6846L18.9119 14.0086C18.1583 13.588 17.0998 13.7315 16.3568 14.4745C16.2837 14.5474 15.8192 14.981 14.9948 15.0211C14.1507 15.0621 13.1292 14.6829 11.9731 13.5268C10.8167 12.3704 10.4375 11.3485 10.4789 10.5043C10.5193 9.67985 10.9528 9.21568 11.0253 9.14313C11.7683 8.40008 11.9119 7.34157 11.4914 6.58802L10.8153 5.37664Z" fill="#141416"/>
</svg>
