<svg width="62" height="53" viewBox="0 0 62 53" fill="none" xmlns="http://www.w3.org/2000/svg">
<path d="M59.8125 48.375H55.6875V29.8128L56.2908 30.4161C56.6785 30.8031 57.204 31.0202 57.7518 31.0197C58.2996 31.0192 58.8248 30.8012 59.2118 30.4135C59.5988 30.0258 59.8159 29.5003 59.8155 28.9525C59.815 28.4047 59.5969 27.8795 59.2092 27.4925L33.8534 2.14471C33.0798 1.37172 32.031 0.9375 30.9375 0.9375C29.8439 0.9375 28.7951 1.37172 28.0216 2.14471L2.66578 27.4925C2.27911 27.8795 2.06202 28.4043 2.06226 28.9513C2.06251 29.4984 2.28006 30.023 2.66707 30.4096C3.05408 30.7963 3.57884 31.0134 4.12591 31.0131C4.67298 31.0129 5.19755 30.7953 5.58422 30.4083L6.1875 29.8128V48.375H2.0625C1.51549 48.375 0.990886 48.5923 0.604092 48.9791C0.217298 49.3659 0 49.8905 0 50.4375C0 50.9845 0.217298 51.5091 0.604092 51.8959C0.990886 52.2827 1.51549 52.5 2.0625 52.5H59.8125C60.3595 52.5 60.8841 52.2827 61.2709 51.8959C61.6577 51.5091 61.875 50.9845 61.875 50.4375C61.875 49.8905 61.6577 49.3659 61.2709 48.9791C60.8841 48.5923 60.3595 48.375 59.8125 48.375ZM10.3125 25.6878L30.9375 5.06311L51.5625 25.6878V48.375H39.1875V33.9377C39.1875 33.3907 38.9702 32.8661 38.5834 32.4793C38.1966 32.0926 37.672 31.8753 37.125 31.8753H24.75C24.203 31.8753 23.6784 32.0926 23.2916 32.4793C22.9048 32.8661 22.6875 33.3907 22.6875 33.9377V48.375H10.3125V25.6878ZM35.0625 48.375H26.8125V36.0002H35.0625V48.375Z" fill="black"/>
</svg>
