<svg width="60" height="58" viewBox="0 0 60 58" fill="none" xmlns="http://www.w3.org/2000/svg">
<path d="M57.9219 55.5357H2.92188M52.4219 55.5357V26.5625M8.42187 55.5357V26.5625" stroke="#A1C249" stroke-width="4" stroke-linecap="round"/>
<path d="M42.6697 2.5H17.6857C14.3668 2.5 12.7088 2.5 11.3762 3.29918C10.041 4.09569 9.29883 5.53369 7.81733 8.40968L3.94116 17.8956C3.0473 20.0874 2.26379 22.6694 3.77012 24.5216C4.47974 25.3957 5.45306 26.0336 6.55453 26.3465C7.65599 26.6594 8.83076 26.6317 9.91521 26.2673C10.9997 25.9029 11.9398 25.2198 12.6047 24.3134C13.2696 23.4069 13.6262 22.322 13.6247 21.21C13.6247 22.6277 14.206 23.9874 15.2408 24.99C16.2755 25.9925 17.679 26.5557 19.1424 26.5557C20.6057 26.5557 22.0092 25.9925 23.0439 24.99C24.0787 23.9874 24.66 22.6277 24.66 21.21C24.66 22.6277 25.2414 23.9874 26.2761 24.99C27.3109 25.9925 28.7143 26.5557 30.1777 26.5557C31.6411 26.5557 33.0445 25.9925 34.0793 24.99C35.1141 23.9874 35.6954 22.6277 35.6954 21.21C35.6954 22.6277 36.2767 23.9874 37.3115 24.99C38.3463 25.9925 39.7497 26.5557 41.2131 26.5557C42.6765 26.5557 44.0799 25.9925 45.1147 24.99C46.1494 23.9874 46.7307 22.6277 46.7307 21.21C46.7306 22.3212 47.0878 23.4048 47.7528 24.3101C48.4178 25.2155 49.3574 25.8975 50.4411 26.2615C51.5247 26.6255 52.6985 26.6532 53.7992 26.3409C54.8999 26.0286 55.8728 25.3918 56.5826 24.519C58.0889 22.6667 57.3054 20.0847 56.4115 17.893L52.5381 8.40968C51.0566 5.53369 50.3145 4.09569 48.9792 3.29918C47.6467 2.5 45.9886 2.5 42.6697 2.5Z" stroke="#A1C249" stroke-width="4" stroke-linejoin="round"/>
<path d="M23.5469 54.0624V46.2945C23.5469 43.8735 23.5469 42.6643 24.0996 41.7633C24.4617 41.1729 24.9823 40.6826 25.6094 40.3417C26.5664 39.8213 27.8506 39.8213 30.4219 39.8213C32.9931 39.8213 34.2774 39.8213 35.2344 40.3417C35.8614 40.6826 36.3821 41.1729 36.7441 41.7633C37.2969 42.6643 37.2969 43.8735 37.2969 46.2945V54.0624" stroke="#A1C249" stroke-width="4" stroke-linecap="round"/>
</svg>
