<svg width="64" height="49" viewBox="0 0 64 49" fill="none" xmlns="http://www.w3.org/2000/svg">
<path d="M61.002 44.3577H58.9232V20.1961C58.9232 19.5144 58.7543 18.8433 58.4316 18.2422C58.1088 17.6411 57.6422 17.1287 57.073 16.7503L34.2054 1.5616C33.5225 1.10801 32.72 0.865967 31.8992 0.865967C31.0784 0.865967 30.2759 1.10801 29.5929 1.5616L6.72537 16.7503C6.1557 17.1284 5.68853 17.6407 5.36532 18.2418C5.0421 18.8429 4.87285 19.5142 4.87258 20.1961V44.3577H2.79371C2.24236 44.3577 1.71359 44.576 1.32373 44.9644C0.933867 45.3528 0.714844 45.8795 0.714844 46.4288C0.714844 46.9781 0.933867 47.5049 1.32373 47.8933C1.71359 48.2817 2.24236 48.4999 2.79371 48.4999H61.002C61.5534 48.4999 62.0822 48.2817 62.472 47.8933C62.8619 47.5049 63.0809 46.9781 63.0809 46.4288C63.0809 45.8795 62.8619 45.3528 62.472 44.9644C62.0822 44.576 61.5534 44.3577 61.002 44.3577ZM9.03032 20.1961L31.8979 5.00735L54.7654 20.1935V44.3577H48.5288V29.8602C48.5288 29.311 48.3098 28.7842 47.9199 28.3958C47.5301 28.0074 47.0013 27.7892 46.45 27.7892H17.3458C16.7944 27.7892 16.2657 28.0074 15.8758 28.3958C15.4859 28.7842 15.2669 29.311 15.2669 29.8602V44.3577H9.03032V20.1961ZM44.3711 31.9313V36.0735H33.9767V31.9313H44.3711ZM29.819 36.0735H19.4247V31.9313H29.819V36.0735ZM19.4247 40.2156H29.819V44.3577H19.4247V40.2156ZM33.9767 40.2156H44.3711V44.3577H33.9767V40.2156Z" fill="black"/>
</svg>
