<svg width="335" height="80" viewBox="0 0 335 80" fill="none" xmlns="http://www.w3.org/2000/svg">
<path d="M65.3833 43.3333C65.5285 42.228 65.6064 41.1148 65.6167 40C65.6064 38.8852 65.5285 37.772 65.3833 36.6667L72.6 31.0167C72.9259 30.7677 73.1486 30.4074 73.2254 30.0046C73.3023 29.6018 73.228 29.1848 73.0167 28.8333L66.1833 16.9833C65.9854 16.6279 65.6643 16.3571 65.2806 16.222C64.8968 16.087 64.4769 16.0969 64.1 16.25L55.5833 19.6833C53.8111 18.3308 51.8732 17.2106 49.8167 16.35L48.5333 7.29999C48.4767 6.89953 48.2764 6.53331 47.9698 6.2696C47.6631 6.00589 47.2711 5.86268 46.8667 5.86666H33.1667C32.7622 5.86268 32.3702 6.00589 32.0635 6.2696C31.7569 6.53331 31.5566 6.89953 31.5 7.29999L30.2167 16.35C28.1575 17.2052 26.2188 18.3258 24.45 19.6833L15.9 16.25C15.5231 16.0969 15.1032 16.087 14.7194 16.222C14.3357 16.3571 14.0146 16.6279 13.8167 16.9833L6.98332 28.8333C6.772 29.1848 6.69767 29.6018 6.77454 30.0046C6.85142 30.4074 7.0741 30.7677 7.39999 31.0167L14.6 36.6667C14.4554 37.7721 14.3774 38.8852 14.3667 40C14.3769 41.1148 14.4548 42.228 14.6 43.3333L7.39999 48.9833C7.0741 49.2322 6.85142 49.5926 6.77454 49.9954C6.69767 50.3982 6.772 50.8152 6.98332 51.1667L13.8167 63.0167C14.0146 63.3721 14.3357 63.6429 14.7194 63.778C15.1032 63.913 15.5231 63.9031 15.9 63.75L24.4167 60.3167C26.1888 61.6692 28.1268 62.7894 30.1833 63.65L31.4667 72.7C31.5233 73.1005 31.7235 73.4667 32.0302 73.7304C32.3368 73.9941 32.7289 74.1373 33.1333 74.1333H46.8C47.2044 74.1373 47.5965 73.9941 47.9031 73.7304C48.2098 73.4667 48.4101 73.1005 48.4667 72.7L49.75 63.65C51.8092 62.7948 53.7478 61.6742 55.5167 60.3167L64.0333 63.75C64.4102 63.9031 64.8302 63.913 65.2139 63.778C65.5976 63.6429 65.9187 63.3721 66.1167 63.0167L72.95 51.1667C73.1613 50.8152 73.2356 50.3982 73.1588 49.9954C73.0819 49.5926 72.8592 49.2322 72.5333 48.9833L65.3833 43.3333ZM40 51.9667C37.6325 51.97 35.3172 51.2709 33.3471 49.958C31.377 48.6451 29.8406 46.7773 28.9324 44.591C28.0241 42.4047 27.7847 39.998 28.2446 37.6756C28.7044 35.3532 29.8428 33.2194 31.5157 31.5442C33.1886 29.869 35.3208 28.7276 37.6426 28.2645C39.9644 27.8014 42.3713 28.0374 44.5589 28.9426C46.7465 29.8479 48.6164 31.3817 49.9321 33.3499C51.2477 35.3182 51.95 37.6325 51.95 40C51.9522 41.5707 51.6447 43.1264 51.0451 44.5782C50.4456 46.0299 49.5657 47.3493 48.4558 48.4607C47.3459 49.5721 46.0278 50.4538 44.5769 51.0554C43.126 51.657 41.5707 51.9667 40 51.9667Z" stroke="#E1E2E0" stroke-width="1.25" stroke-linecap="round" stroke-linejoin="round"/>
<g opacity="0.5">
<path d="M150.383 43.3333C150.529 42.228 150.606 41.1148 150.617 40C150.606 38.8852 150.529 37.772 150.383 36.6667L157.6 31.0167C157.926 30.7677 158.149 30.4074 158.225 30.0046C158.302 29.6018 158.228 29.1848 158.017 28.8333L151.183 16.9833C150.985 16.6279 150.664 16.3571 150.281 16.222C149.897 16.087 149.477 16.0969 149.1 16.25L140.583 19.6833C138.811 18.3308 136.873 17.2106 134.817 16.35L133.533 7.29999C133.477 6.89953 133.276 6.53331 132.97 6.2696C132.663 6.00589 132.271 5.86268 131.867 5.86666H118.167C117.762 5.86268 117.37 6.00589 117.064 6.2696C116.757 6.53331 116.557 6.89953 116.5 7.29999L115.217 16.35C113.157 17.2052 111.219 18.3258 109.45 19.6833L100.9 16.25C100.523 16.0969 100.103 16.087 99.7194 16.222C99.3357 16.3571 99.0146 16.6279 98.8167 16.9833L91.9833 28.8333C91.772 29.1848 91.6977 29.6018 91.7745 30.0046C91.8514 30.4074 92.0741 30.7677 92.4 31.0167L99.6 36.6667C99.4554 37.7721 99.3774 38.8852 99.3667 40C99.3769 41.1148 99.4548 42.228 99.6 43.3333L92.4 48.9833C92.0741 49.2322 91.8514 49.5926 91.7745 49.9954C91.6977 50.3982 91.772 50.8152 91.9833 51.1667L98.8167 63.0167C99.0146 63.3721 99.3357 63.6429 99.7194 63.778C100.103 63.913 100.523 63.9031 100.9 63.75L109.417 60.3167C111.189 61.6692 113.127 62.7894 115.183 63.65L116.467 72.7C116.523 73.1005 116.724 73.4667 117.03 73.7304C117.337 73.9941 117.729 74.1373 118.133 74.1333H131.8C132.204 74.1373 132.596 73.9941 132.903 73.7304C133.21 73.4667 133.41 73.1005 133.467 72.7L134.75 63.65C136.809 62.7948 138.748 61.6742 140.517 60.3167L149.033 63.75C149.41 63.9031 149.83 63.913 150.214 63.778C150.598 63.6429 150.919 63.3721 151.117 63.0167L157.95 51.1667C158.161 50.8152 158.236 50.3982 158.159 49.9954C158.082 49.5926 157.859 49.2322 157.533 48.9833L150.383 43.3333ZM125 51.9667C122.632 51.97 120.317 51.2709 118.347 49.958C116.377 48.6451 114.841 46.7773 113.932 44.591C113.024 42.4047 112.785 39.998 113.245 37.6756C113.704 35.3532 114.843 33.2194 116.516 31.5442C118.189 29.869 120.321 28.7276 122.643 28.2645C124.964 27.8014 127.371 28.0374 129.559 28.9426C131.747 29.8479 133.616 31.3817 134.932 33.3499C136.248 35.3182 136.95 37.6325 136.95 40C136.952 41.5707 136.645 43.1264 136.045 44.5782C135.446 46.0299 134.566 47.3493 133.456 48.4607C132.346 49.5721 131.028 50.4538 129.577 51.0554C128.126 51.657 126.571 51.9667 125 51.9667Z" stroke="#E1E2E0" stroke-width="1.25" stroke-linecap="round" stroke-linejoin="round"/>
</g>
<g opacity="0.25">
<path d="M235.383 43.3333C235.529 42.228 235.606 41.1148 235.617 40C235.606 38.8852 235.529 37.772 235.383 36.6667L242.6 31.0167C242.926 30.7677 243.149 30.4074 243.225 30.0046C243.302 29.6018 243.228 29.1848 243.017 28.8333L236.183 16.9833C235.985 16.6279 235.664 16.3571 235.281 16.222C234.897 16.087 234.477 16.0969 234.1 16.25L225.583 19.6833C223.811 18.3308 221.873 17.2106 219.817 16.35L218.533 7.29999C218.477 6.89953 218.276 6.53331 217.97 6.2696C217.663 6.00589 217.271 5.86268 216.867 5.86666H203.167C202.762 5.86268 202.37 6.00589 202.064 6.2696C201.757 6.53331 201.557 6.89953 201.5 7.29999L200.217 16.35C198.157 17.2052 196.219 18.3258 194.45 19.6833L185.9 16.25C185.523 16.0969 185.103 16.087 184.719 16.222C184.336 16.3571 184.015 16.6279 183.817 16.9833L176.983 28.8333C176.772 29.1848 176.698 29.6018 176.775 30.0046C176.851 30.4074 177.074 30.7677 177.4 31.0167L184.6 36.6667C184.455 37.7721 184.377 38.8852 184.367 40C184.377 41.1148 184.455 42.228 184.6 43.3333L177.4 48.9833C177.074 49.2322 176.851 49.5926 176.775 49.9954C176.698 50.3982 176.772 50.8152 176.983 51.1667L183.817 63.0167C184.015 63.3721 184.336 63.6429 184.719 63.778C185.103 63.913 185.523 63.9031 185.9 63.75L194.417 60.3167C196.189 61.6692 198.127 62.7894 200.183 63.65L201.467 72.7C201.523 73.1005 201.724 73.4667 202.03 73.7304C202.337 73.9941 202.729 74.1373 203.133 74.1333H216.8C217.204 74.1373 217.596 73.9941 217.903 73.7304C218.21 73.4667 218.41 73.1005 218.467 72.7L219.75 63.65C221.809 62.7948 223.748 61.6742 225.517 60.3167L234.033 63.75C234.41 63.9031 234.83 63.913 235.214 63.778C235.598 63.6429 235.919 63.3721 236.117 63.0167L242.95 51.1667C243.161 50.8152 243.236 50.3982 243.159 49.9954C243.082 49.5926 242.859 49.2322 242.533 48.9833L235.383 43.3333ZM210 51.9667C207.632 51.97 205.317 51.2709 203.347 49.958C201.377 48.6451 199.841 46.7773 198.932 44.591C198.024 42.4047 197.785 39.998 198.245 37.6756C198.704 35.3532 199.843 33.2194 201.516 31.5442C203.189 29.869 205.321 28.7276 207.643 28.2645C209.964 27.8014 212.371 28.0374 214.559 28.9426C216.747 29.8479 218.616 31.3817 219.932 33.3499C221.248 35.3182 221.95 37.6325 221.95 40C221.952 41.5707 221.645 43.1264 221.045 44.5782C220.446 46.0299 219.566 47.3493 218.456 48.4607C217.346 49.5721 216.028 50.4538 214.577 51.0554C213.126 51.657 211.571 51.9667 210 51.9667Z" stroke="#E1E2E0" stroke-width="1.25" stroke-linecap="round" stroke-linejoin="round"/>
</g>
<g opacity="0.1">
<path d="M320.383 43.3333C320.529 42.228 320.606 41.1148 320.617 40C320.606 38.8852 320.529 37.772 320.383 36.6667L327.6 31.0167C327.926 30.7677 328.149 30.4074 328.225 30.0046C328.302 29.6018 328.228 29.1848 328.017 28.8333L321.183 16.9833C320.985 16.6279 320.664 16.3571 320.281 16.222C319.897 16.087 319.477 16.0969 319.1 16.25L310.583 19.6833C308.811 18.3308 306.873 17.2106 304.817 16.35L303.533 7.29999C303.477 6.89953 303.276 6.53331 302.97 6.2696C302.663 6.00589 302.271 5.86268 301.867 5.86666H288.167C287.762 5.86268 287.37 6.00589 287.064 6.2696C286.757 6.53331 286.557 6.89953 286.5 7.29999L285.217 16.35C283.157 17.2052 281.219 18.3258 279.45 19.6833L270.9 16.25C270.523 16.0969 270.103 16.087 269.719 16.222C269.336 16.3571 269.015 16.6279 268.817 16.9833L261.983 28.8333C261.772 29.1848 261.698 29.6018 261.775 30.0046C261.851 30.4074 262.074 30.7677 262.4 31.0167L269.6 36.6667C269.455 37.7721 269.377 38.8852 269.367 40C269.377 41.1148 269.455 42.228 269.6 43.3333L262.4 48.9833C262.074 49.2322 261.851 49.5926 261.775 49.9954C261.698 50.3982 261.772 50.8152 261.983 51.1667L268.817 63.0167C269.015 63.3721 269.336 63.6429 269.719 63.778C270.103 63.913 270.523 63.9031 270.9 63.75L279.417 60.3167C281.189 61.6692 283.127 62.7894 285.183 63.65L286.467 72.7C286.523 73.1005 286.724 73.4667 287.03 73.7304C287.337 73.9941 287.729 74.1373 288.133 74.1333H301.8C302.204 74.1373 302.596 73.9941 302.903 73.7304C303.21 73.4667 303.41 73.1005 303.467 72.7L304.75 63.65C306.809 62.7948 308.748 61.6742 310.517 60.3167L319.033 63.75C319.41 63.9031 319.83 63.913 320.214 63.778C320.598 63.6429 320.919 63.3721 321.117 63.0167L327.95 51.1667C328.161 50.8152 328.236 50.3982 328.159 49.9954C328.082 49.5926 327.859 49.2322 327.533 48.9833L320.383 43.3333ZM295 51.9667C292.632 51.97 290.317 51.2709 288.347 49.958C286.377 48.6451 284.841 46.7773 283.932 44.591C283.024 42.4047 282.785 39.998 283.245 37.6756C283.704 35.3532 284.843 33.2194 286.516 31.5442C288.189 29.869 290.321 28.7276 292.643 28.2645C294.964 27.8014 297.371 28.0374 299.559 28.9426C301.747 29.8479 303.616 31.3817 304.932 33.3499C306.248 35.3182 306.95 37.6325 306.95 40C306.952 41.5707 306.645 43.1264 306.045 44.5782C305.446 46.0299 304.566 47.3493 303.456 48.4607C302.346 49.5721 301.028 50.4538 299.577 51.0554C298.126 51.657 296.571 51.9667 295 51.9667Z" stroke="#E1E2E0" stroke-width="1.25" stroke-linecap="round" stroke-linejoin="round"/>
</g>
</svg>
