<svg width="335" height="80" viewBox="0 0 335 80" fill="none" xmlns="http://www.w3.org/2000/svg">
<path d="M35.7653 37.6738H7.92232C7.4129 37.6738 7 37.2609 7 36.7515V8.92232C7 8.4129 7.4129 8 7.92232 8H35.7653C36.2747 8 36.6876 8.4129 36.6876 8.92232V36.7514C36.6876 37.2609 36.2747 37.6738 35.7653 37.6738ZM8.84478 35.8292H34.8429V9.84465H8.84478V35.8292Z" fill="#141416"/>
<path d="M71.1024 73H43.2597C42.7503 73 42.3373 72.5871 42.3373 72.0777V44.2486C42.3373 43.7392 42.7503 43.3263 43.2597 43.3263H71.1024C71.6118 43.3263 72.0247 43.7392 72.0247 44.2486V72.0775C72.0247 72.5871 71.6118 73 71.1024 73ZM44.1821 71.1553H70.1801V45.1709H44.1821V71.1553Z" fill="#141416"/>
<path d="M71.1024 37.6738H43.2597C42.7503 37.6738 42.3373 37.2609 42.3373 36.7515V8.92232C42.3373 8.4129 42.7503 8 43.2597 8H71.1024C71.6118 8 72.0247 8.4129 72.0247 8.92232V36.7514C72.0247 37.2609 71.6118 37.6738 71.1024 37.6738ZM44.1821 35.8292H70.1801V9.84465H44.1821V35.8292Z" fill="#141416"/>
<path d="M35.7653 73H7.92232C7.4129 73 7 72.5871 7 72.0777V44.2486C7 43.7392 7.4129 43.3263 7.92232 43.3263H35.7653C36.2747 43.3263 36.6876 43.7392 36.6876 44.2486V72.0775C36.6876 72.5871 36.2747 73 35.7653 73ZM8.84478 71.1553H34.8429V45.1709H8.84478V71.1553Z" fill="#141416"/>
<g opacity="0.5">
<path d="M120.765 37.6738H92.9223C92.4129 37.6738 92 37.2609 92 36.7515V8.92232C92 8.4129 92.4129 8 92.9223 8H120.765C121.275 8 121.688 8.4129 121.688 8.92232V36.7514C121.688 37.2609 121.275 37.6738 120.765 37.6738ZM93.8448 35.8292H119.843V9.84465H93.8448V35.8292Z" fill="#141416"/>
<path d="M156.102 73H128.26C127.75 73 127.337 72.5871 127.337 72.0777V44.2486C127.337 43.7392 127.75 43.3263 128.26 43.3263H156.102C156.612 43.3263 157.025 43.7392 157.025 44.2486V72.0775C157.025 72.5871 156.612 73 156.102 73ZM129.182 71.1553H155.18V45.1709H129.182V71.1553Z" fill="#141416"/>
<path d="M156.102 37.6738H128.26C127.75 37.6738 127.337 37.2609 127.337 36.7515V8.92232C127.337 8.4129 127.75 8 128.26 8H156.102C156.612 8 157.025 8.4129 157.025 8.92232V36.7514C157.025 37.2609 156.612 37.6738 156.102 37.6738ZM129.182 35.8292H155.18V9.84465H129.182V35.8292Z" fill="#141416"/>
<path d="M120.765 73H92.9223C92.4129 73 92 72.5871 92 72.0777V44.2486C92 43.7392 92.4129 43.3263 92.9223 43.3263H120.765C121.275 43.3263 121.688 43.7392 121.688 44.2486V72.0775C121.688 72.5871 121.275 73 120.765 73ZM93.8448 71.1553H119.843V45.1709H93.8448V71.1553Z" fill="#141416"/>
</g>
<g opacity="0.25">
<path d="M205.765 37.6738H177.922C177.413 37.6738 177 37.2609 177 36.7515V8.92232C177 8.4129 177.413 8 177.922 8H205.765C206.275 8 206.688 8.4129 206.688 8.92232V36.7514C206.688 37.2609 206.275 37.6738 205.765 37.6738ZM178.845 35.8292H204.843V9.84465H178.845V35.8292Z" fill="#141416"/>
<path d="M241.102 73H213.26C212.75 73 212.337 72.5871 212.337 72.0777V44.2486C212.337 43.7392 212.75 43.3263 213.26 43.3263H241.102C241.612 43.3263 242.025 43.7392 242.025 44.2486V72.0775C242.025 72.5871 241.612 73 241.102 73ZM214.182 71.1553H240.18V45.1709H214.182V71.1553Z" fill="#141416"/>
<path d="M241.102 37.6738H213.26C212.75 37.6738 212.337 37.2609 212.337 36.7515V8.92232C212.337 8.4129 212.75 8 213.26 8H241.102C241.612 8 242.025 8.4129 242.025 8.92232V36.7514C242.025 37.2609 241.612 37.6738 241.102 37.6738ZM214.182 35.8292H240.18V9.84465H214.182V35.8292Z" fill="#141416"/>
<path d="M205.765 73H177.922C177.413 73 177 72.5871 177 72.0777V44.2486C177 43.7392 177.413 43.3263 177.922 43.3263H205.765C206.275 43.3263 206.688 43.7392 206.688 44.2486V72.0775C206.688 72.5871 206.275 73 205.765 73ZM178.845 71.1553H204.843V45.1709H178.845V71.1553Z" fill="#141416"/>
</g>
<g opacity="0.1">
<path d="M290.765 37.6738H262.922C262.413 37.6738 262 37.2609 262 36.7515V8.92232C262 8.4129 262.413 8 262.922 8H290.765C291.275 8 291.688 8.4129 291.688 8.92232V36.7514C291.688 37.2609 291.275 37.6738 290.765 37.6738ZM263.845 35.8292H289.843V9.84465H263.845V35.8292Z" fill="#141416"/>
<path d="M326.102 73H298.26C297.75 73 297.337 72.5871 297.337 72.0777V44.2486C297.337 43.7392 297.75 43.3263 298.26 43.3263H326.102C326.612 43.3263 327.025 43.7392 327.025 44.2486V72.0775C327.025 72.5871 326.612 73 326.102 73ZM299.182 71.1553H325.18V45.1709H299.182V71.1553Z" fill="#141416"/>
<path d="M326.102 37.6738H298.26C297.75 37.6738 297.337 37.2609 297.337 36.7515V8.92232C297.337 8.4129 297.75 8 298.26 8H326.102C326.612 8 327.025 8.4129 327.025 8.92232V36.7514C327.025 37.2609 326.612 37.6738 326.102 37.6738ZM299.182 35.8292H325.18V9.84465H299.182V35.8292Z" fill="#141416"/>
<path d="M290.765 73H262.922C262.413 73 262 72.5871 262 72.0777V44.2486C262 43.7392 262.413 43.3263 262.922 43.3263H290.765C291.275 43.3263 291.688 43.7392 291.688 44.2486V72.0775C291.688 72.5871 291.275 73 290.765 73ZM263.845 71.1553H289.843V45.1709H263.845V71.1553Z" fill="#141416"/>
</g>
</svg>
