<svg width="335" height="80" viewBox="0 0 335 80" fill="none" xmlns="http://www.w3.org/2000/svg">
<path d="M40.0742 77.0073C22.1975 77.0073 7.6539 62.4708 7.6539 44.6027C7.6539 37.2641 10.1781 30.0745 14.7614 24.3584C19.2747 18.7297 25.6061 14.7209 32.5895 13.0708C33.1531 12.9372 33.7176 13.2863 33.8506 13.8497C33.9837 14.413 33.635 14.9778 33.0717 15.1108C19.3405 18.3556 9.75031 30.4831 9.75031 44.6025C9.75031 61.3145 23.3536 74.9109 40.0742 74.9109C56.795 74.9109 70.3983 61.3145 70.3983 44.6025C70.3983 44.0236 70.8675 43.5544 71.4464 43.5544C72.0253 43.5544 72.4945 44.0236 72.4945 44.6025C72.4945 53.2591 69.1225 61.397 62.9994 67.517C56.8766 73.637 48.7347 77.0073 40.0742 77.0073Z" fill="#E1E2E0"/>
<path d="M32.8305 25.0332C32.6444 25.0332 32.4584 24.9838 32.2933 24.885C31.9764 24.696 31.7823 24.3541 31.7823 23.985V4.18972C31.7823 3.82065 31.9766 3.47878 32.2934 3.28956C32.6105 3.1005 33.0036 3.0919 33.3283 3.26706L51.68 13.1682C52.0191 13.3513 52.2305 13.7055 52.2303 14.0908C52.2303 14.4761 52.0187 14.8303 51.6797 15.0133L33.3281 24.9074C33.1725 24.9914 33.0014 25.0332 32.8305 25.0332ZM33.8787 5.94644V22.2291L48.9741 14.0907L33.8787 5.94644Z" fill="#E1E2E0"/>
<g opacity="0.5">
<path d="M125.074 77.0073C107.197 77.0073 92.6539 62.4708 92.6539 44.6027C92.6539 37.2641 95.1781 30.0745 99.7614 24.3584C104.275 18.7297 110.606 14.7209 117.59 13.0708C118.153 12.9372 118.718 13.2863 118.851 13.8497C118.984 14.413 118.635 14.9778 118.072 15.1108C104.34 18.3556 94.7503 30.4831 94.7503 44.6025C94.7503 61.3145 108.354 74.9109 125.074 74.9109C141.795 74.9109 155.398 61.3145 155.398 44.6025C155.398 44.0236 155.867 43.5544 156.446 43.5544C157.025 43.5544 157.495 44.0236 157.495 44.6025C157.495 53.2591 154.122 61.397 147.999 67.517C141.877 73.637 133.735 77.0073 125.074 77.0073Z" fill="#E1E2E0"/>
<path d="M117.83 25.0332C117.644 25.0332 117.458 24.9838 117.293 24.885C116.976 24.696 116.782 24.3541 116.782 23.985V4.18972C116.782 3.82065 116.977 3.47878 117.293 3.28956C117.61 3.1005 118.004 3.0919 118.328 3.26706L136.68 13.1682C137.019 13.3513 137.23 13.7055 137.23 14.0908C137.23 14.4761 137.019 14.8303 136.68 15.0133L118.328 24.9074C118.172 24.9914 118.001 25.0332 117.83 25.0332ZM118.879 5.94644V22.2291L133.974 14.0907L118.879 5.94644Z" fill="#E1E2E0"/>
</g>
<g opacity="0.25">
<path d="M210.074 77.0073C192.198 77.0073 177.654 62.4708 177.654 44.6027C177.654 37.2641 180.178 30.0745 184.761 24.3584C189.275 18.7297 195.606 14.7209 202.59 13.0708C203.153 12.9372 203.718 13.2863 203.851 13.8497C203.984 14.413 203.635 14.9778 203.072 15.1108C189.34 18.3556 179.75 30.4831 179.75 44.6025C179.75 61.3145 193.354 74.9109 210.074 74.9109C226.795 74.9109 240.398 61.3145 240.398 44.6025C240.398 44.0236 240.867 43.5544 241.446 43.5544C242.025 43.5544 242.495 44.0236 242.495 44.6025C242.495 53.2591 239.123 61.397 232.999 67.517C226.877 73.637 218.735 77.0073 210.074 77.0073Z" fill="#E1E2E0"/>
<path d="M202.83 25.0332C202.644 25.0332 202.458 24.9838 202.293 24.885C201.976 24.696 201.782 24.3541 201.782 23.985V4.18972C201.782 3.82065 201.977 3.47878 202.293 3.28956C202.61 3.1005 203.004 3.0919 203.328 3.26706L221.68 13.1682C222.019 13.3513 222.23 13.7055 222.23 14.0908C222.23 14.4761 222.019 14.8303 221.68 15.0133L203.328 24.9074C203.173 24.9914 203.001 25.0332 202.83 25.0332ZM203.879 5.94644V22.2291L218.974 14.0907L203.879 5.94644Z" fill="#E1E2E0"/>
</g>
<g opacity="0.1">
<path d="M295.074 77.0073C277.198 77.0073 262.654 62.4708 262.654 44.6027C262.654 37.2641 265.178 30.0745 269.761 24.3584C274.275 18.7297 280.606 14.7209 287.59 13.0708C288.153 12.9372 288.718 13.2863 288.851 13.8497C288.984 14.413 288.635 14.9778 288.072 15.1108C274.34 18.3556 264.75 30.4831 264.75 44.6025C264.75 61.3145 278.354 74.9109 295.074 74.9109C311.795 74.9109 325.398 61.3145 325.398 44.6025C325.398 44.0236 325.867 43.5544 326.446 43.5544C327.025 43.5544 327.495 44.0236 327.495 44.6025C327.495 53.2591 324.122 61.397 317.999 67.517C311.877 73.637 303.735 77.0073 295.074 77.0073Z" fill="#E1E2E0"/>
<path d="M287.83 25.0332C287.644 25.0332 287.458 24.9838 287.293 24.885C286.976 24.696 286.782 24.3541 286.782 23.985V4.18972C286.782 3.82065 286.977 3.47878 287.293 3.28956C287.61 3.1005 288.004 3.0919 288.328 3.26706L306.68 13.1682C307.019 13.3513 307.23 13.7055 307.23 14.0908C307.23 14.4761 307.019 14.8303 306.68 15.0133L288.328 24.9074C288.173 24.9914 288.001 25.0332 287.83 25.0332ZM288.879 5.94644V22.2291L303.974 14.0907L288.879 5.94644Z" fill="#E1E2E0"/>
</g>
</svg>
