<svg width="310" height="80" viewBox="0 0 310 80" fill="none" xmlns="http://www.w3.org/2000/svg">
<g clip-path="url(#clip0_25_178)">
<path d="M10.093 42.2922C10.0909 37.088 10.0889 31.8834 10.087 26.6785C10.086 24.1695 10.085 21.6605 10.0841 19.1517C10.0841 18.0495 10.0841 16.9474 10.0841 15.8452C10.0841 15.3661 10.0487 14.8887 10.251 14.4405C10.4463 14.013 10.7892 13.6701 11.2167 13.4748C11.8176 13.2016 12.5763 13.3071 13.2229 13.3071H15.1944H19.8762L31.3453 13.3032L44.221 13.299L56.6353 13.2945L66.7617 13.2888C67.514 13.2888 68.3503 13.1696 69.02 13.5774C69.404 13.8128 69.6922 14.1766 69.8335 14.6043C69.9394 15.0625 69.9727 15.5346 69.9322 16.0032C69.9322 18.2007 69.9322 20.398 69.9322 22.5953C69.9322 27.6136 69.9333 32.6317 69.9356 37.6496C69.9356 40.0939 69.9363 42.5385 69.9377 44.9833C69.9377 46.1073 69.9377 47.2313 69.9377 48.3551C69.9377 48.882 69.9377 49.409 69.9377 49.9361C69.9377 50.171 69.9214 50.4127 69.9377 50.6468C69.9872 50.9086 70.111 51.1506 70.2943 51.344C72.8397 54.9129 75.434 58.4639 77.7608 62.1818C78.0148 62.5875 78.2762 62.9929 78.5079 63.4117C78.8441 64.0192 78.7394 64.7382 78.7344 65.4061C78.7541 65.6301 78.7114 65.8553 78.6111 66.0566C78.5108 66.2579 78.3567 66.4276 78.166 66.5468C77.9098 66.6744 77.6232 66.7285 77.3381 66.7029H2.84381C2.47276 66.7029 2.00408 66.7748 1.68052 66.5699C1.11423 66.2109 1.32495 65.4911 1.2869 64.9279C1.23967 64.2593 0.209685 64.0258 0.0496115 64.7605C0.033568 64.8999 0.0248089 65.0401 0.02337 65.1804H1.28296C1.20646 64.6629 1.24717 64.1349 1.4021 63.6353C1.67921 62.9459 2.18594 62.2915 2.5814 61.6648C3.49854 60.2108 4.45268 58.7801 5.4189 57.358C6.37514 55.9508 7.34354 54.5518 8.3241 53.161C8.73592 52.5749 9.14922 51.9899 9.56401 51.4059C9.77406 51.1739 9.9467 50.9106 10.0757 50.6255C10.1846 50.2301 10.0978 49.6934 10.0978 49.2872C10.0967 46.9548 10.0958 44.6226 10.0949 42.2904C10.0949 41.4798 8.83528 41.4785 8.83528 42.2904C8.83633 45.0129 8.83747 47.7355 8.83869 50.4584L8.92214 50.1421C6.14211 54.0461 3.34371 57.9634 0.852865 62.0608C0.463703 62.7008 0.0918604 63.3104 0.0288807 64.0772C-0.00654307 64.4447 -0.00917763 64.8146 0.0210082 65.1825C0.0210082 65.3495 0.0873617 65.5097 0.205472 65.6278C0.323581 65.7459 0.483773 65.8123 0.650806 65.8123C0.817838 65.8123 0.978029 65.7459 1.09614 65.6278C1.21425 65.5097 1.2806 65.3495 1.2806 65.1825C1.29267 65.0775 1.33309 64.77 1.2625 65.098L0.0262565 64.9306C0.0425263 65.1631 0.0280934 65.4013 0.0280934 65.6341C-0.00583232 66.2315 0.191504 66.819 0.579166 67.2747C1.12447 67.8833 1.85398 67.9651 2.61551 67.9651H76.7217C77.2432 68.0076 77.7681 67.9739 78.2799 67.8649C78.8446 67.6908 79.3277 67.3191 79.6408 66.8179C79.9992 66.2405 79.994 65.6163 79.9995 64.9602C80.0063 64.1824 79.9866 63.475 79.5983 62.7772C79.349 62.329 79.0695 61.8949 78.7968 61.4607C78.1846 60.4855 77.5493 59.5251 76.9051 58.5712C75.5466 56.5595 74.1453 54.577 72.7358 52.6007C72.1958 51.8434 71.6552 51.0862 71.1141 50.3292L71.1999 50.647C71.1983 46.0401 71.1969 41.4331 71.1954 36.8261C71.1942 31.8866 71.1932 26.9471 71.1923 22.0075C71.1923 19.8576 71.1923 17.7077 71.1923 15.5576C71.1923 14.4555 70.8882 13.4402 69.9928 12.7303C69.1772 12.0848 68.2714 12.0292 67.2771 12.0292L57.4953 12.0326L45.3507 12.0368L32.6004 12.0412L21.0019 12.0449L12.2847 12.0478C11.265 12.0478 10.309 12.3365 9.61938 13.129C8.84499 14.0193 8.82295 15.0396 8.82321 16.1575C8.82426 18.4772 8.82514 20.797 8.82584 23.1168L8.83214 38.7223C8.83214 39.912 8.83257 41.1016 8.83345 42.2912C8.83371 43.1028 10.0933 43.1042 10.093 42.2922Z" fill="#211715"/>
<path d="M73.237 62.6609H9.07433C8.20836 62.6609 7.33976 62.6455 6.47327 62.6609C6.43548 62.6609 6.39769 62.6609 6.35964 62.6609C5.5493 62.6609 5.54773 63.9205 6.35964 63.9205H70.5223C71.3883 63.9205 72.2569 63.936 73.1234 63.9205C73.1612 63.9205 73.199 63.9205 73.237 63.9205C74.0474 63.9205 74.0489 62.6609 73.237 62.6609Z" fill="#211715"/>
<path d="M12.3432 17.4548C12.3443 20.3858 12.3454 23.3168 12.3466 26.2478C12.348 29.6466 12.3494 33.0455 12.3508 36.4445C12.3521 39.331 12.3533 42.2185 12.3545 45.1068C12.3545 45.6238 12.3545 46.1406 12.3545 46.6572C12.3234 47.1635 12.3385 47.6716 12.3997 48.1752C12.4889 48.6138 12.71 49.0147 13.0333 49.3242C13.3566 49.6337 13.7667 49.8371 14.2087 49.9072C14.7259 49.9561 15.2459 49.9668 15.7646 49.9392L22.7373 49.9366L31.6468 49.9334L41.4349 49.9303L51.0277 49.9271L59.4812 49.9245H62.9414H64.4109C64.9402 49.9615 65.4719 49.9408 65.9967 49.8628C66.4521 49.749 66.8596 49.4938 67.1608 49.1338C67.462 48.7738 67.6414 48.3276 67.673 47.8593C67.7357 47.0371 67.6785 46.189 67.678 45.3642C67.678 43.5179 67.6773 41.6716 67.6759 39.8254L67.6712 27.9965C67.6696 24.5657 67.6681 21.1351 67.6667 17.7046C67.6667 16.7861 67.3345 15.9026 66.4559 15.4777C65.9625 15.2795 65.4295 15.1992 64.8996 15.2431H62.595L56.0785 15.2452L47.7357 15.2479L38.5383 15.251L29.4346 15.2536L21.4047 15.2563L15.3203 15.2581C14.8241 15.2581 14.2956 15.2116 13.8219 15.3809C13.3936 15.5347 13.0225 15.8156 12.7582 16.1861C12.494 16.5566 12.3492 16.999 12.3432 17.454C12.3209 18.2649 13.5805 18.2643 13.6028 17.454C13.6204 16.8129 14.1295 16.5174 14.7126 16.5172H15.889H18.6908L25.9004 16.5148L34.4832 16.5119L43.5526 16.509L52.2215 16.5064L59.6043 16.504L64.814 16.5022C65.1641 16.5022 65.5766 16.4434 65.8952 16.6027C66.548 16.9286 66.4077 17.7198 66.4077 18.3239C66.4077 19.935 66.4084 21.5457 66.4098 23.1563C66.4113 26.9176 66.4128 30.6789 66.4142 34.4401L66.4189 45.5949V46.813C66.4514 47.1913 66.4426 47.5719 66.3927 47.9482C66.2457 48.5817 65.6697 48.6646 65.1234 48.6649H62.2591L54.7467 48.6673L45.6918 48.6704L36.0611 48.6736L26.8199 48.6767L18.9348 48.6793H15.7901C15.3472 48.7015 14.9035 48.7015 14.4607 48.6793C13.8177 48.6135 13.6149 48.0619 13.6146 47.5027C13.6136 45.1934 13.6126 42.8833 13.6118 40.5723C13.6102 37.3388 13.6088 34.1052 13.6076 30.8716L13.6036 21.2438C13.6036 19.9805 13.6036 18.7173 13.6036 17.454C13.6023 16.6444 12.3427 16.6429 12.3432 17.4548Z" fill="#211715"/>
</g>
<g opacity="0.25" clip-path="url(#clip1_25_178)">
<path d="M125.093 42.2922C125.091 37.088 125.089 31.8834 125.087 26.6785C125.086 24.1695 125.085 21.6605 125.084 19.1517C125.084 18.0495 125.084 16.9474 125.084 15.8452C125.084 15.3661 125.049 14.8887 125.251 14.4405C125.446 14.013 125.789 13.6701 126.217 13.4748C126.818 13.2016 127.576 13.3071 128.223 13.3071H130.194H134.876L146.345 13.3032L159.221 13.299L171.635 13.2945L181.762 13.2888C182.514 13.2888 183.35 13.1696 184.02 13.5774C184.404 13.8128 184.692 14.1766 184.833 14.6043C184.939 15.0625 184.973 15.5346 184.932 16.0032C184.932 18.2007 184.932 20.398 184.932 22.5953C184.932 27.6136 184.933 32.6317 184.936 37.6496C184.936 40.0939 184.936 42.5385 184.938 44.9833C184.938 46.1073 184.938 47.2313 184.938 48.3551C184.938 48.882 184.938 49.409 184.938 49.9361C184.938 50.171 184.921 50.4127 184.938 50.6468C184.987 50.9086 185.111 51.1506 185.294 51.344C187.84 54.9129 190.434 58.4639 192.761 62.1818C193.015 62.5875 193.276 62.9929 193.508 63.4117C193.844 64.0192 193.739 64.7382 193.734 65.4061C193.754 65.6301 193.711 65.8553 193.611 66.0566C193.511 66.2579 193.357 66.4276 193.166 66.5468C192.91 66.6744 192.623 66.7285 192.338 66.7029H117.844C117.473 66.7029 117.004 66.7748 116.681 66.5699C116.114 66.2109 116.325 65.4911 116.287 64.9279C116.24 64.2593 115.21 64.0258 115.05 64.7605C115.034 64.8999 115.025 65.0401 115.023 65.1804H116.283C116.206 64.6629 116.247 64.1349 116.402 63.6353C116.679 62.9459 117.186 62.2915 117.581 61.6648C118.499 60.2108 119.453 58.7801 120.419 57.358C121.375 55.9508 122.344 54.5518 123.324 53.161C123.736 52.5749 124.149 51.9899 124.564 51.4059C124.774 51.1739 124.947 50.9106 125.076 50.6255C125.185 50.2301 125.098 49.6934 125.098 49.2872C125.097 46.9548 125.096 44.6226 125.095 42.2904C125.095 41.4798 123.835 41.4785 123.835 42.2904C123.836 45.0129 123.837 47.7355 123.839 50.4584L123.922 50.1421C121.142 54.0461 118.344 57.9634 115.853 62.0608C115.464 62.7008 115.092 63.3104 115.029 64.0772C114.993 64.4447 114.991 64.8146 115.021 65.1825C115.021 65.3495 115.087 65.5097 115.205 65.6278C115.324 65.7459 115.484 65.8123 115.651 65.8123C115.818 65.8123 115.978 65.7459 116.096 65.6278C116.214 65.5097 116.281 65.3495 116.281 65.1825C116.293 65.0775 116.333 64.77 116.262 65.098L115.026 64.9306C115.043 65.1631 115.028 65.4013 115.028 65.6341C114.994 66.2315 115.191 66.819 115.579 67.2747C116.124 67.8833 116.854 67.9651 117.615 67.9651H191.722C192.243 68.0076 192.768 67.9739 193.28 67.8649C193.845 67.6908 194.328 67.3191 194.641 66.8179C194.999 66.2405 194.994 65.6163 194.999 64.9602C195.006 64.1824 194.987 63.475 194.598 62.7772C194.349 62.329 194.069 61.8949 193.797 61.4607C193.185 60.4855 192.549 59.5251 191.905 58.5712C190.547 56.5595 189.145 54.577 187.736 52.6007C187.196 51.8434 186.655 51.0862 186.114 50.3292L186.2 50.647C186.198 46.0401 186.197 41.4331 186.195 36.8261C186.194 31.8866 186.193 26.9471 186.192 22.0075C186.192 19.8576 186.192 17.7077 186.192 15.5576C186.192 14.4555 185.888 13.4402 184.993 12.7303C184.177 12.0848 183.271 12.0292 182.277 12.0292L172.495 12.0326L160.351 12.0368L147.6 12.0412L136.002 12.0449L127.285 12.0478C126.265 12.0478 125.309 12.3365 124.619 13.129C123.845 14.0193 123.823 15.0396 123.823 16.1575C123.824 18.4772 123.825 20.797 123.826 23.1168L123.832 38.7223C123.832 39.912 123.833 41.1016 123.833 42.2912C123.834 43.1028 125.093 43.1042 125.093 42.2922Z" fill="#211715"/>
<path d="M188.237 62.6609H124.074C123.208 62.6609 122.34 62.6455 121.473 62.6609C121.435 62.6609 121.398 62.6609 121.36 62.6609C120.549 62.6609 120.548 63.9205 121.36 63.9205H185.522C186.388 63.9205 187.257 63.936 188.123 63.9205C188.161 63.9205 188.199 63.9205 188.237 63.9205C189.047 63.9205 189.049 62.6609 188.237 62.6609Z" fill="#211715"/>
<path d="M127.343 17.4548C127.344 20.3858 127.345 23.3168 127.347 26.2478C127.348 29.6466 127.349 33.0455 127.351 36.4445C127.352 39.331 127.353 42.2185 127.355 45.1068C127.355 45.6238 127.355 46.1406 127.355 46.6572C127.323 47.1635 127.339 47.6716 127.4 48.1752C127.489 48.6138 127.71 49.0147 128.033 49.3242C128.357 49.6337 128.767 49.8371 129.209 49.9072C129.726 49.9561 130.246 49.9668 130.765 49.9392L137.737 49.9366L146.647 49.9334L156.435 49.9303L166.028 49.9271L174.481 49.9245H177.941H179.411C179.94 49.9615 180.472 49.9408 180.997 49.8628C181.452 49.749 181.86 49.4938 182.161 49.1338C182.462 48.7738 182.641 48.3276 182.673 47.8593C182.736 47.0371 182.679 46.189 182.678 45.3642C182.678 43.5179 182.677 41.6716 182.676 39.8254L182.671 27.9965C182.67 24.5657 182.668 21.1351 182.667 17.7046C182.667 16.7861 182.335 15.9026 181.456 15.4777C180.962 15.2795 180.43 15.1992 179.9 15.2431H177.595L171.078 15.2452L162.736 15.2479L153.538 15.251L144.435 15.2536L136.405 15.2563L130.32 15.2581C129.824 15.2581 129.296 15.2116 128.822 15.3809C128.394 15.5347 128.023 15.8156 127.758 16.1861C127.494 16.5566 127.349 16.999 127.343 17.454C127.321 18.2649 128.581 18.2643 128.603 17.454C128.62 16.8129 129.129 16.5174 129.713 16.5172H130.889H133.691L140.9 16.5148L149.483 16.5119L158.553 16.509L167.221 16.5064L174.604 16.504L179.814 16.5022C180.164 16.5022 180.577 16.4434 180.895 16.6027C181.548 16.9286 181.408 17.7198 181.408 18.3239C181.408 19.935 181.408 21.5457 181.41 23.1563C181.411 26.9176 181.413 30.6789 181.414 34.4401L181.419 45.5949V46.813C181.451 47.1913 181.443 47.5719 181.393 47.9482C181.246 48.5817 180.67 48.6646 180.123 48.6649H177.259L169.747 48.6673L160.692 48.6704L151.061 48.6736L141.82 48.6767L133.935 48.6793H130.79C130.347 48.7015 129.904 48.7015 129.461 48.6793C128.818 48.6135 128.615 48.0619 128.615 47.5027C128.614 45.1934 128.613 42.8833 128.612 40.5723C128.61 37.3388 128.609 34.1052 128.608 30.8716L128.604 21.2438C128.604 19.9805 128.604 18.7173 128.604 17.454C128.602 16.6444 127.343 16.6429 127.343 17.4548Z" fill="#211715"/>
</g>
<g opacity="0.1" clip-path="url(#clip2_25_178)">
<path d="M240.093 42.2922C240.091 37.088 240.089 31.8834 240.087 26.6785C240.086 24.1695 240.085 21.6605 240.084 19.1517C240.084 18.0495 240.084 16.9474 240.084 15.8452C240.084 15.3661 240.049 14.8887 240.251 14.4405C240.446 14.013 240.789 13.6701 241.217 13.4748C241.818 13.2016 242.576 13.3071 243.223 13.3071H245.194H249.876L261.345 13.3032L274.221 13.299L286.635 13.2945L296.762 13.2888C297.514 13.2888 298.35 13.1696 299.02 13.5774C299.404 13.8128 299.692 14.1766 299.833 14.6043C299.939 15.0625 299.973 15.5346 299.932 16.0032C299.932 18.2007 299.932 20.398 299.932 22.5953C299.932 27.6136 299.933 32.6317 299.936 37.6496C299.936 40.0939 299.936 42.5385 299.938 44.9833C299.938 46.1073 299.938 47.2313 299.938 48.3551C299.938 48.882 299.938 49.409 299.938 49.9361C299.938 50.171 299.921 50.4127 299.938 50.6468C299.987 50.9086 300.111 51.1506 300.294 51.344C302.84 54.9129 305.434 58.4639 307.761 62.1818C308.015 62.5875 308.276 62.9929 308.508 63.4117C308.844 64.0192 308.739 64.7382 308.734 65.4061C308.754 65.6301 308.711 65.8553 308.611 66.0566C308.511 66.2579 308.357 66.4276 308.166 66.5468C307.91 66.6744 307.623 66.7285 307.338 66.7029H232.844C232.473 66.7029 232.004 66.7748 231.681 66.5699C231.114 66.2109 231.325 65.4911 231.287 64.9279C231.24 64.2593 230.21 64.0258 230.05 64.7605C230.034 64.8999 230.025 65.0401 230.023 65.1804H231.283C231.206 64.6629 231.247 64.1349 231.402 63.6353C231.679 62.9459 232.186 62.2915 232.581 61.6648C233.499 60.2108 234.453 58.7801 235.419 57.358C236.375 55.9508 237.344 54.5518 238.324 53.161C238.736 52.5749 239.149 51.9899 239.564 51.4059C239.774 51.1739 239.947 50.9106 240.076 50.6255C240.185 50.2301 240.098 49.6934 240.098 49.2872C240.097 46.9548 240.096 44.6226 240.095 42.2904C240.095 41.4798 238.835 41.4785 238.835 42.2904C238.836 45.0129 238.837 47.7355 238.839 50.4584L238.922 50.1421C236.142 54.0461 233.344 57.9634 230.853 62.0608C230.464 62.7008 230.092 63.3104 230.029 64.0772C229.993 64.4447 229.991 64.8146 230.021 65.1825C230.021 65.3495 230.087 65.5097 230.205 65.6278C230.324 65.7459 230.484 65.8123 230.651 65.8123C230.818 65.8123 230.978 65.7459 231.096 65.6278C231.214 65.5097 231.281 65.3495 231.281 65.1825C231.293 65.0775 231.333 64.77 231.262 65.098L230.026 64.9306C230.043 65.1631 230.028 65.4013 230.028 65.6341C229.994 66.2315 230.191 66.819 230.579 67.2747C231.124 67.8833 231.854 67.9651 232.615 67.9651H306.722C307.243 68.0076 307.768 67.9739 308.28 67.8649C308.845 67.6908 309.328 67.3191 309.641 66.8179C309.999 66.2405 309.994 65.6163 309.999 64.9602C310.006 64.1824 309.987 63.475 309.598 62.7772C309.349 62.329 309.069 61.8949 308.797 61.4607C308.185 60.4855 307.549 59.5251 306.905 58.5712C305.547 56.5595 304.145 54.577 302.736 52.6007C302.196 51.8434 301.655 51.0862 301.114 50.3292L301.2 50.647C301.198 46.0401 301.197 41.4331 301.195 36.8261C301.194 31.8866 301.193 26.9471 301.192 22.0075C301.192 19.8576 301.192 17.7077 301.192 15.5576C301.192 14.4555 300.888 13.4402 299.993 12.7303C299.177 12.0848 298.271 12.0292 297.277 12.0292L287.495 12.0326L275.351 12.0368L262.6 12.0412L251.002 12.0449L242.285 12.0478C241.265 12.0478 240.309 12.3365 239.619 13.129C238.845 14.0193 238.823 15.0396 238.823 16.1575C238.824 18.4772 238.825 20.797 238.826 23.1168L238.832 38.7223C238.832 39.912 238.833 41.1016 238.833 42.2912C238.834 43.1028 240.093 43.1042 240.093 42.2922Z" fill="#211715"/>
<path d="M303.237 62.6609H239.074C238.208 62.6609 237.34 62.6455 236.473 62.6609C236.435 62.6609 236.398 62.6609 236.36 62.6609C235.549 62.6609 235.548 63.9205 236.36 63.9205H300.522C301.388 63.9205 302.257 63.936 303.123 63.9205C303.161 63.9205 303.199 63.9205 303.237 63.9205C304.047 63.9205 304.049 62.6609 303.237 62.6609Z" fill="#211715"/>
<path d="M242.343 17.4548C242.344 20.3858 242.345 23.3168 242.347 26.2478C242.348 29.6466 242.349 33.0455 242.351 36.4445C242.352 39.331 242.353 42.2185 242.355 45.1068C242.355 45.6238 242.355 46.1406 242.355 46.6572C242.323 47.1635 242.339 47.6716 242.4 48.1752C242.489 48.6138 242.71 49.0147 243.033 49.3242C243.357 49.6337 243.767 49.8371 244.209 49.9072C244.726 49.9561 245.246 49.9668 245.765 49.9392L252.737 49.9366L261.647 49.9334L271.435 49.9303L281.028 49.9271L289.481 49.9245H292.941H294.411C294.94 49.9615 295.472 49.9408 295.997 49.8628C296.452 49.749 296.86 49.4938 297.161 49.1338C297.462 48.7738 297.641 48.3276 297.673 47.8593C297.736 47.0371 297.679 46.189 297.678 45.3642C297.678 43.5179 297.677 41.6716 297.676 39.8254L297.671 27.9965C297.67 24.5657 297.668 21.1351 297.667 17.7046C297.667 16.7861 297.335 15.9026 296.456 15.4777C295.962 15.2795 295.43 15.1992 294.9 15.2431H292.595L286.078 15.2452L277.736 15.2479L268.538 15.251L259.435 15.2536L251.405 15.2563L245.32 15.2581C244.824 15.2581 244.296 15.2116 243.822 15.3809C243.394 15.5347 243.023 15.8156 242.758 16.1861C242.494 16.5566 242.349 16.999 242.343 17.454C242.321 18.2649 243.581 18.2643 243.603 17.454C243.62 16.8129 244.13 16.5174 244.713 16.5172H245.889H248.691L255.9 16.5148L264.483 16.5119L273.553 16.509L282.221 16.5064L289.604 16.504L294.814 16.5022C295.164 16.5022 295.577 16.4434 295.895 16.6027C296.548 16.9286 296.408 17.7198 296.408 18.3239C296.408 19.935 296.408 21.5457 296.41 23.1563C296.411 26.9176 296.413 30.6789 296.414 34.4401L296.419 45.5949V46.813C296.451 47.1913 296.443 47.5719 296.393 47.9482C296.246 48.5817 295.67 48.6646 295.123 48.6649H292.259L284.747 48.6673L275.692 48.6704L266.061 48.6736L256.82 48.6767L248.935 48.6793H245.79C245.347 48.7015 244.904 48.7015 244.461 48.6793C243.818 48.6135 243.615 48.0619 243.615 47.5027C243.614 45.1934 243.613 42.8833 243.612 40.5723C243.61 37.3388 243.609 34.1052 243.608 30.8716L243.604 21.2438C243.604 19.9805 243.604 18.7173 243.604 17.454C243.602 16.6444 242.343 16.6429 242.343 17.4548Z" fill="#211715"/>
</g>
<defs>
<clipPath id="clip0_25_178">
<rect width="80" height="80" fill="white"/>
</clipPath>
<clipPath id="clip1_25_178">
<rect width="80" height="80" fill="white" transform="translate(115)"/>
</clipPath>
<clipPath id="clip2_25_178">
<rect width="80" height="80" fill="white" transform="translate(230)"/>
</clipPath>
</defs>
</svg>
