<svg width="328" height="80" viewBox="0 0 328 80" fill="none" xmlns="http://www.w3.org/2000/svg">
<path d="M67 15.7375V15.4285L66.7236 15.2903L40.2236 2.04446L40 1.9327L39.7764 2.04449L13.2764 15.2945L13 15.4327V15.7417V45.8334C13 60.722 25.1114 72.8334 40 72.8334C54.8887 72.8334 67 60.7178 67 45.8334V15.7375ZM63 25.9286L40.8944 14.8778L40.4472 14.6542L40.2236 15.1014L38.882 17.7848L38.6583 18.232L39.1056 18.4556L63 30.4007V38.4286L40.8944 27.3778L40.4472 27.1542L40.2236 27.6014L38.882 30.2848L38.6583 30.732L39.1056 30.9556L63 42.9007V45.8334C63 47.4873 62.803 49.0998 62.4637 50.6604L40.8986 39.8778L40.4514 39.6542L40.2278 40.1014L38.8861 42.7848L38.6625 43.232L39.1098 43.4556L61.2693 54.5333C60.3458 56.7805 59.082 58.8472 57.5335 60.6748L40.8982 52.3776L40.4503 52.1542L40.2274 52.6023L38.8899 55.2898L38.6673 55.7369L39.1142 55.9599L54.5124 63.645C50.5437 66.8779 45.503 68.8334 40 68.8334C27.3178 68.8334 17 58.5156 17 45.8334V17.9048L40 6.40074L63 17.9007V25.9286Z" stroke="#141416"/>
<g opacity="0.5">
<path d="M148.778 15.7375V15.4285L148.501 15.2903L122.001 2.04446L121.778 1.9327L121.554 2.04449L95.0542 15.2945L94.7778 15.4327V15.7417V45.8334C94.7778 60.722 106.889 72.8334 121.778 72.8334C136.666 72.8334 148.778 60.7178 148.778 45.8334V15.7375ZM144.778 25.9286L122.672 14.8778L122.225 14.6542L122.001 15.1014L120.66 17.7848L120.436 18.232L120.883 18.4556L144.778 30.4007V38.4286L122.672 27.3778L122.225 27.1542L122.001 27.6014L120.66 30.2848L120.436 30.732L120.883 30.9556L144.778 42.9007V45.8334C144.778 47.4873 144.581 49.0998 144.241 50.6604L122.676 39.8778L122.229 39.6542L122.006 40.1014L120.664 42.7848L120.44 43.232L120.888 43.4556L143.047 54.5333C142.124 56.7805 140.86 58.8472 139.311 60.6748L122.676 52.3776L122.228 52.1542L122.005 52.6023L120.668 55.2898L120.445 55.7369L120.892 55.9599L136.29 63.645C132.321 66.8779 127.281 68.8334 121.778 68.8334C109.096 68.8334 98.7778 58.5156 98.7778 45.8334V17.9048L121.778 6.40074L144.778 17.9007V25.9286Z" stroke="#141416"/>
</g>
<g opacity="0.25">
<path d="M230.556 15.7375V15.4285L230.279 15.2903L203.779 2.04446L203.556 1.9327L203.332 2.04449L176.832 15.2945L176.556 15.4327V15.7417V45.8334C176.556 60.722 188.667 72.8334 203.556 72.8334C218.444 72.8334 230.556 60.7178 230.556 45.8334V15.7375ZM226.556 25.9286L204.45 14.8778L204.003 14.6542L203.779 15.1014L202.437 17.7848L202.214 18.232L202.661 18.4556L226.556 30.4007V38.4286L204.45 27.3778L204.003 27.1542L203.779 27.6014L202.437 30.2848L202.214 30.732L202.661 30.9556L226.556 42.9007V45.8334C226.556 47.4873 226.359 49.0998 226.019 50.6604L204.454 39.8778L204.007 39.6542L203.783 40.1014L202.442 42.7848L202.218 43.232L202.665 43.4556L224.825 54.5333C223.901 56.7805 222.638 58.8472 221.089 60.6748L204.454 52.3776L204.006 52.1542L203.783 52.6023L202.445 55.2898L202.223 55.7369L202.67 55.9599L218.068 63.645C214.099 66.8779 209.059 68.8334 203.556 68.8334C190.873 68.8334 180.556 58.5156 180.556 45.8334V17.9048L203.556 6.40074L226.556 17.9007V25.9286Z" stroke="#141416"/>
</g>
<path d="M312.333 15.7375V15.4285L312.057 15.2903L285.557 2.04446L285.333 1.9327L285.11 2.04449L258.61 15.2945L258.333 15.4327V15.7417V45.8334C258.333 60.722 270.445 72.8334 285.333 72.8334C300.222 72.8334 312.333 60.7178 312.333 45.8334V15.7375ZM308.333 25.9286L286.228 14.8778L285.781 14.6542L285.557 15.1014L284.215 17.7848L283.992 18.232L284.439 18.4556L308.333 30.4007V38.4286L286.228 27.3778L285.781 27.1542L285.557 27.6014L284.215 30.2848L283.992 30.732L284.439 30.9556L308.333 42.9007V45.8334C308.333 47.4873 308.136 49.0998 307.797 50.6604L286.232 39.8778L285.785 39.6542L285.561 40.1014L284.219 42.7848L283.996 43.232L284.443 43.4556L306.603 54.5333C305.679 56.7805 304.415 58.8472 302.867 60.6748L286.232 52.3776L285.784 52.1542L285.561 52.6023L284.223 55.2898L284.001 55.7369L284.448 55.9599L299.846 63.645C295.877 66.8779 290.836 68.8334 285.333 68.8334C272.651 68.8334 262.333 58.5156 262.333 45.8334V17.9048L285.333 6.40074L308.333 17.9007V25.9286Z" stroke="#E1E2E0"/>
</svg>
