<svg width="335" height="80" viewBox="0 0 335 80" fill="none" xmlns="http://www.w3.org/2000/svg">
<path d="M53.2 18.7C53.2 25.9902 47.2902 31.9 40 31.9C32.7099 31.9 26.8 25.9902 26.8 18.7C26.8 11.4098 32.7099 5.5 40 5.5C47.2902 5.5 53.2 11.4098 53.2 18.7Z" stroke="#141416"/>
<path d="M58.85 74.5H21.15C18.1 74.5 15.175 73.2884 13.0183 71.1318C10.8617 68.9752 9.65009 66.0502 9.65002 63.0003C9.65658 56.3188 12.3137 49.9128 17.0382 45.1883C21.7628 40.4637 28.1688 37.8066 34.8503 37.8H45.1498C51.8313 37.8066 58.2373 40.4637 62.9618 45.1883C67.6864 49.9129 70.3435 56.3189 70.35 63.0005C70.3499 66.0504 69.1383 68.9752 66.9818 71.1318C64.8251 73.2884 61.9 74.5 58.85 74.5Z" stroke="#141416"/>
<g opacity="0.5">
<path d="M138.2 18.7C138.2 25.9902 132.29 31.9 125 31.9C117.71 31.9 111.8 25.9902 111.8 18.7C111.8 11.4098 117.71 5.5 125 5.5C132.29 5.5 138.2 11.4098 138.2 18.7Z" stroke="#141416"/>
<path d="M143.85 74.5H106.15C103.1 74.5 100.175 73.2884 98.0183 71.1318C95.8617 68.9752 94.6501 66.0502 94.65 63.0003C94.6566 56.3188 97.3137 49.9128 102.038 45.1883C106.763 40.4637 113.169 37.8066 119.85 37.8H130.15C136.831 37.8066 143.237 40.4637 147.962 45.1883C152.686 49.9129 155.344 56.3189 155.35 63.0005C155.35 66.0504 154.138 68.9752 151.982 71.1318C149.825 73.2884 146.9 74.5 143.85 74.5Z" stroke="#141416"/>
</g>
<g opacity="0.25">
<path d="M223.2 18.7C223.2 25.9902 217.29 31.9 210 31.9C202.71 31.9 196.8 25.9902 196.8 18.7C196.8 11.4098 202.71 5.5 210 5.5C217.29 5.5 223.2 11.4098 223.2 18.7Z" stroke="#141416"/>
<path d="M228.85 74.5H191.15C188.1 74.5 185.175 73.2884 183.018 71.1318C180.862 68.9752 179.65 66.0502 179.65 63.0003C179.657 56.3188 182.314 49.9128 187.038 45.1883C191.763 40.4637 198.169 37.8066 204.85 37.8H215.15C221.831 37.8066 228.237 40.4637 232.962 45.1883C237.686 49.9129 240.344 56.3189 240.35 63.0005C240.35 66.0504 239.138 68.9752 236.982 71.1318C234.825 73.2884 231.9 74.5 228.85 74.5Z" stroke="#141416"/>
</g>
<g opacity="0.1">
<path d="M308.2 18.7C308.2 25.9902 302.29 31.9 295 31.9C287.71 31.9 281.8 25.9902 281.8 18.7C281.8 11.4098 287.71 5.5 295 5.5C302.29 5.5 308.2 11.4098 308.2 18.7Z" stroke="#141416"/>
<path d="M313.85 74.5H276.15C273.1 74.5 270.175 73.2884 268.018 71.1318C265.862 68.9752 264.65 66.0502 264.65 63.0003C264.657 56.3188 267.314 49.9128 272.038 45.1883C276.763 40.4637 283.169 37.8066 289.85 37.8H300.15C306.831 37.8066 313.237 40.4637 317.962 45.1883C322.686 49.9129 325.344 56.3189 325.35 63.0005C325.35 66.0504 324.138 68.9752 321.982 71.1318C319.825 73.2884 316.9 74.5 313.85 74.5Z" stroke="#141416"/>
</g>
</svg>
