<svg width="335" height="80" viewBox="0 0 335 80" fill="none" xmlns="http://www.w3.org/2000/svg">
<path d="M16.6667 43.3333V16.6667C16.6667 14.8986 17.369 13.2029 18.6193 11.9526C19.8695 10.7024 21.5652 10 23.3333 10H63.3333C65.1014 10 66.7971 10.7024 68.0474 11.9526C69.2976 13.2029 70 14.8986 70 16.6667V60C70 63.3333 68 70 60 70M60 70H20C16.6667 70 10 68 10 60V53.3333H50V60C50 68 56.6667 70 60 70Z" stroke="black" stroke-width="2" stroke-linecap="round" stroke-linejoin="round"/>
<path d="M101.667 43.3333V16.6667C101.667 14.8986 102.369 13.2029 103.619 11.9526C104.87 10.7024 106.565 10 108.333 10H148.333C150.101 10 151.797 10.7024 153.047 11.9526C154.298 13.2029 155 14.8986 155 16.6667V60C155 63.3333 153 70 145 70M145 70H105C101.667 70 95 68 95 60V53.3333H135V60C135 68 141.667 70 145 70Z" stroke="#637631" stroke-width="2" stroke-linecap="round" stroke-linejoin="round"/>
<path d="M186.667 43.3333V16.6667C186.667 14.8986 187.369 13.2029 188.619 11.9526C189.87 10.7024 191.565 10 193.333 10H233.333C235.101 10 236.797 10.7024 238.047 11.9526C239.298 13.2029 240 14.8986 240 16.6667V60C240 63.3333 238 70 230 70M230 70H190C186.667 70 180 68 180 60V53.3333H220V60C220 68 226.667 70 230 70Z" stroke="#8AA63E" stroke-width="2" stroke-linecap="round" stroke-linejoin="round"/>
<path d="M271.667 43.3333V16.6667C271.667 14.8986 272.369 13.2029 273.619 11.9526C274.87 10.7024 276.565 10 278.333 10H318.333C320.101 10 321.797 10.7024 323.047 11.9526C324.298 13.2029 325 14.8986 325 16.6667V60C325 63.3333 323 70 315 70M315 70H275C271.667 70 265 68 265 60V53.3333H305V60C305 68 311.667 70 315 70Z" stroke="#A1C346" stroke-width="2" stroke-linecap="round" stroke-linejoin="round"/>
</svg>
