<svg width="312" height="78" viewBox="0 0 312 78" fill="none" xmlns="http://www.w3.org/2000/svg">
<path d="M15.1243 29.2732L15.1248 29.2616V29.25C15.1248 22.918 17.6402 16.8453 22.1176 12.3678C26.5951 7.89039 32.6678 5.375 38.9998 5.375C42.1351 5.375 45.2397 5.99255 48.1364 7.19238C51.033 8.39221 53.665 10.1508 55.882 12.3678C58.099 14.5848 59.8576 17.2168 61.0574 20.1134C62.2573 23.0101 62.8748 26.1147 62.8748 29.25V29.2615L62.8753 29.273C63.0346 32.7327 62.3702 36.1807 60.9367 39.3334C59.5033 42.4862 57.3418 45.2536 54.63 47.4079L54.6147 47.42L54.6004 47.4334C52.3386 49.5384 50.8958 50.9289 50.7082 53.125H46.824C47.0097 49.2132 49.3721 47.0062 51.8526 44.6888C51.8848 44.6587 51.9171 44.6286 51.9493 44.5985C54.2877 42.8089 56.1528 40.4743 57.3819 37.7982C58.6124 35.1189 59.1679 32.179 58.9998 29.2355C58.996 23.9364 56.8893 18.8552 53.1419 15.1079C49.3912 11.3571 44.3041 9.25 38.9998 9.25C33.6955 9.25 28.6084 11.3571 24.8577 15.1079C21.1104 18.8551 19.0037 23.9363 18.9998 29.2353C18.8289 32.1765 19.3805 35.1149 20.6066 37.7939C21.8316 40.4707 23.6927 42.8071 26.0275 44.5997C28.5603 46.9217 30.9851 49.2018 31.1753 53.125H27.2911C27.1004 50.9275 25.6356 49.5376 23.3991 47.4576L23.3849 47.4445L23.3698 47.4324C20.6561 45.2744 18.4935 42.5028 17.06 39.3459C15.6266 36.1889 14.9631 32.7367 15.1243 29.2732ZM27.3123 59H50.6873V62.875H27.3123V59ZM45.8123 68.75V72.625H32.1873V68.75H45.8123Z" stroke="#141416"/>
<path d="M93.1243 29.2732L93.1248 29.2616V29.25C93.1248 22.918 95.6402 16.8453 100.118 12.3678C104.595 7.89039 110.668 5.375 117 5.375C120.135 5.375 123.24 5.99255 126.136 7.19238C129.033 8.39221 131.665 10.1508 133.882 12.3678C136.099 14.5848 137.858 17.2168 139.057 20.1134C140.257 23.0101 140.875 26.1147 140.875 29.25V29.2615L140.875 29.273C141.035 32.7327 140.37 36.1807 138.937 39.3334C137.503 42.4862 135.342 45.2536 132.63 47.4079L132.615 47.42L132.6 47.4334C130.339 49.5384 128.896 50.9289 128.708 53.125H124.824C125.01 49.2132 127.372 47.0062 129.853 44.6888C129.885 44.6587 129.917 44.6286 129.949 44.5985C132.288 42.8089 134.153 40.4743 135.382 37.7982C136.612 35.1189 137.168 32.179 137 29.2355C136.996 23.9364 134.889 18.8552 131.142 15.1079C127.391 11.3571 122.304 9.25 117 9.25C111.695 9.25 106.608 11.3571 102.858 15.1079C99.1104 18.8551 97.0037 23.9363 96.9998 29.2353C96.8289 32.1765 97.3805 35.1149 98.6066 37.7939C99.8316 40.4707 101.693 42.8071 104.027 44.5997C106.56 46.9217 108.985 49.2018 109.175 53.125H105.291C105.1 50.9275 103.636 49.5376 101.399 47.4576L101.385 47.4445L101.37 47.4324C98.6561 45.2744 96.4935 42.5028 95.06 39.3459C93.6266 36.1889 92.9631 32.7367 93.1243 29.2732ZM105.312 59H128.687V62.875H105.312V59ZM123.812 68.75V72.625H110.187V68.75H123.812Z" stroke="#89898A"/>
<path d="M171.124 29.2732L171.125 29.2616V29.25C171.125 22.918 173.64 16.8453 178.118 12.3678C182.595 7.89039 188.668 5.375 195 5.375C198.135 5.375 201.24 5.99255 204.136 7.19238C207.033 8.39221 209.665 10.1508 211.882 12.3678C214.099 14.5848 215.858 17.2168 217.057 20.1134C218.257 23.0101 218.875 26.1147 218.875 29.25V29.2615L218.875 29.273C219.035 32.7327 218.37 36.1807 216.937 39.3334C215.503 42.4862 213.342 45.2536 210.63 47.4079L210.615 47.42L210.6 47.4334C208.339 49.5384 206.896 50.9289 206.708 53.125H202.824C203.01 49.2132 205.372 47.0062 207.853 44.6888C207.885 44.6587 207.917 44.6286 207.949 44.5985C210.288 42.8089 212.153 40.4743 213.382 37.7982C214.612 35.1189 215.168 32.179 215 29.2355C214.996 23.9364 212.889 18.8552 209.142 15.1079C205.391 11.3571 200.304 9.25 195 9.25C189.695 9.25 184.608 11.3571 180.858 15.1079C177.11 18.8551 175.004 23.9363 175 29.2353C174.829 32.1765 175.38 35.1149 176.607 37.7939C177.832 40.4707 179.693 42.8071 182.027 44.5997C184.56 46.9217 186.985 49.2018 187.175 53.125H183.291C183.1 50.9275 181.636 49.5376 179.399 47.4576L179.385 47.4445L179.37 47.4324C176.656 45.2744 174.494 42.5028 173.06 39.3459C171.627 36.1889 170.963 32.7367 171.124 29.2732ZM183.312 59H206.687V62.875H183.312V59ZM201.812 68.75V72.625H188.187V68.75H201.812Z" stroke="#C4C4C5"/>
<path d="M249.124 29.2732L249.125 29.2616V29.25C249.125 22.918 251.64 16.8453 256.118 12.3678C260.595 7.89039 266.668 5.375 273 5.375C276.135 5.375 279.24 5.99255 282.136 7.19238C285.033 8.39221 287.665 10.1508 289.882 12.3678C292.099 14.5848 293.858 17.2168 295.057 20.1134C296.257 23.0101 296.875 26.1147 296.875 29.25V29.2615L296.875 29.273C297.035 32.7327 296.37 36.1807 294.937 39.3334C293.503 42.4862 291.342 45.2536 288.63 47.4079L288.615 47.42L288.6 47.4334C286.339 49.5384 284.896 50.9289 284.708 53.125H280.824C281.01 49.2132 283.372 47.0062 285.853 44.6888C285.885 44.6587 285.917 44.6286 285.949 44.5985C288.288 42.8089 290.153 40.4743 291.382 37.7982C292.612 35.1189 293.168 32.179 293 29.2355C292.996 23.9364 290.889 18.8552 287.142 15.1079C283.391 11.3571 278.304 9.25 273 9.25C267.695 9.25 262.608 11.3571 258.858 15.1079C255.11 18.8551 253.004 23.9363 253 29.2353C252.829 32.1765 253.38 35.1149 254.607 37.7939C255.832 40.4707 257.693 42.8071 260.027 44.5997C262.56 46.9217 264.985 49.2018 265.175 53.125H261.291C261.1 50.9275 259.636 49.5376 257.399 47.4576L257.385 47.4445L257.37 47.4324C254.656 45.2744 252.494 42.5028 251.06 39.3459C249.627 36.1889 248.963 32.7367 249.124 29.2732ZM261.312 59H284.687V62.875H261.312V59ZM279.812 68.75V72.625H266.187V68.75H279.812Z" stroke="#E1E2E0"/>
</svg>
