<svg width="335" height="80" viewBox="0 0 335 80" fill="none" xmlns="http://www.w3.org/2000/svg">
<path d="M40.0746 77.0073C22.1979 77.0073 7.6543 62.4707 7.6543 44.6026C7.6543 37.264 10.1785 30.0745 14.7618 24.3584C19.2751 18.7296 25.6065 14.7209 32.5899 13.0707C33.1535 12.9371 33.718 13.2862 33.851 13.8496C33.9841 14.4129 33.6354 14.9778 33.0721 15.1107C19.3409 18.3556 9.7507 30.4831 9.7507 44.6024C9.7507 61.3145 23.354 74.9109 40.0746 74.9109C56.7954 74.9109 70.3987 61.3145 70.3987 44.6024C70.3987 44.0235 70.8679 43.5543 71.4468 43.5543C72.0257 43.5543 72.4949 44.0235 72.4949 44.6024C72.4949 53.259 69.1229 61.397 62.9998 67.517C56.877 73.637 48.7351 77.0073 40.0746 77.0073Z" fill="#141416"/>
<path d="M32.8313 25.033C32.6452 25.033 32.4593 24.9837 32.2941 24.8849C31.9773 24.6958 31.7832 24.354 31.7832 23.9849V4.18959C31.7832 3.82053 31.9774 3.47866 32.2943 3.28944C32.6113 3.10038 33.0045 3.09178 33.3291 3.26694L51.6809 13.168C52.0199 13.3512 52.2313 13.7054 52.2312 14.0907C52.2312 14.476 52.0196 14.8302 51.6805 15.0132L33.329 24.9072C33.1734 24.9913 33.0023 25.033 32.8313 25.033ZM33.8796 5.94631V22.229L48.9749 14.0905L33.8796 5.94631Z" fill="#141416"/>
<g opacity="0.5">
<path d="M125.075 77.0073C107.198 77.0073 92.6543 62.4707 92.6543 44.6026C92.6543 37.264 95.1785 30.0745 99.7618 24.3584C104.275 18.7296 110.606 14.7209 117.59 13.0707C118.154 12.9371 118.718 13.2862 118.851 13.8496C118.984 14.4129 118.635 14.9778 118.072 15.1107C104.341 18.3556 94.7507 30.4831 94.7507 44.6024C94.7507 61.3145 108.354 74.9109 125.075 74.9109C141.795 74.9109 155.399 61.3145 155.399 44.6024C155.399 44.0235 155.868 43.5543 156.447 43.5543C157.026 43.5543 157.495 44.0235 157.495 44.6024C157.495 53.259 154.123 61.397 148 67.517C141.877 73.637 133.735 77.0073 125.075 77.0073Z" fill="black"/>
<path d="M117.831 25.033C117.645 25.033 117.459 24.9837 117.294 24.8849C116.977 24.6958 116.783 24.354 116.783 23.9849V4.18959C116.783 3.82053 116.977 3.47866 117.294 3.28944C117.611 3.10038 118.004 3.09178 118.329 3.26694L136.681 13.168C137.02 13.3512 137.231 13.7054 137.231 14.0907C137.231 14.476 137.02 14.8302 136.681 15.0132L118.329 24.9072C118.173 24.9913 118.002 25.033 117.831 25.033ZM118.88 5.94631V22.229L133.975 14.0905L118.88 5.94631Z" fill="black"/>
</g>
<g opacity="0.25">
<path d="M210.075 77.0073C192.198 77.0073 177.654 62.4707 177.654 44.6026C177.654 37.264 180.179 30.0745 184.762 24.3584C189.275 18.7296 195.606 14.7209 202.59 13.0707C203.154 12.9371 203.718 13.2862 203.851 13.8496C203.984 14.4129 203.635 14.9778 203.072 15.1107C189.341 18.3556 179.751 30.4831 179.751 44.6024C179.751 61.3145 193.354 74.9109 210.075 74.9109C226.795 74.9109 240.399 61.3145 240.399 44.6024C240.399 44.0235 240.868 43.5543 241.447 43.5543C242.026 43.5543 242.495 44.0235 242.495 44.6024C242.495 53.259 239.123 61.397 233 67.517C226.877 73.637 218.735 77.0073 210.075 77.0073Z" fill="black"/>
<path d="M202.831 25.033C202.645 25.033 202.459 24.9837 202.294 24.8849C201.977 24.6958 201.783 24.354 201.783 23.9849V4.18959C201.783 3.82053 201.977 3.47866 202.294 3.28944C202.611 3.10038 203.004 3.09178 203.329 3.26694L221.681 13.168C222.02 13.3512 222.231 13.7054 222.231 14.0907C222.231 14.476 222.02 14.8302 221.681 15.0132L203.329 24.9072C203.173 24.9913 203.002 25.033 202.831 25.033ZM203.88 5.94631V22.229L218.975 14.0905L203.88 5.94631Z" fill="black"/>
</g>
<g opacity="0.1">
<path d="M295.075 77.0073C277.198 77.0073 262.654 62.4707 262.654 44.6026C262.654 37.264 265.179 30.0745 269.762 24.3584C274.275 18.7296 280.606 14.7209 287.59 13.0707C288.154 12.9371 288.718 13.2862 288.851 13.8496C288.984 14.4129 288.635 14.9778 288.072 15.1107C274.341 18.3556 264.751 30.4831 264.751 44.6024C264.751 61.3145 278.354 74.9109 295.075 74.9109C311.795 74.9109 325.399 61.3145 325.399 44.6024C325.399 44.0235 325.868 43.5543 326.447 43.5543C327.026 43.5543 327.495 44.0235 327.495 44.6024C327.495 53.259 324.123 61.397 318 67.517C311.877 73.637 303.735 77.0073 295.075 77.0073Z" fill="black"/>
<path d="M287.831 25.033C287.645 25.033 287.459 24.9837 287.294 24.8849C286.977 24.6958 286.783 24.354 286.783 23.9849V4.18959C286.783 3.82053 286.977 3.47866 287.294 3.28944C287.611 3.10038 288.004 3.09178 288.329 3.26694L306.681 13.168C307.02 13.3512 307.231 13.7054 307.231 14.0907C307.231 14.476 307.02 14.8302 306.681 15.0132L288.329 24.9072C288.173 24.9913 288.002 25.033 287.831 25.033ZM288.88 5.94631V22.229L303.975 14.0905L288.88 5.94631Z" fill="black"/>
</g>
</svg>
