<svg width="157" height="82" viewBox="0 0 157 82" fill="none" xmlns="http://www.w3.org/2000/svg">
<g clip-path="url(#clip0_11_266)">
<path d="M32.5129 17.3704V22.8072C31.2855 22.1819 30.0853 21.6926 28.9397 21.3664C27.7669 21.0402 26.6758 20.8771 25.6393 20.8771C24.2756 20.8771 23.2663 21.0946 22.5844 21.5295C21.9298 21.9645 21.6025 22.6441 21.6025 23.5683C21.6025 24.2479 21.8207 24.7916 22.2571 25.1721C22.6936 25.5527 23.5118 25.8789 24.6574 26.1508L27.1122 26.7216C29.5944 27.2925 31.34 28.1624 32.4038 29.3313C33.4403 30.5002 33.9585 32.1584 33.9585 34.3331C33.9585 37.1602 33.222 39.2805 31.7764 40.6669C30.3308 42.0533 28.0942 42.7329 25.0938 42.7329C23.6755 42.7329 22.2571 42.5698 20.8388 42.2707C19.4204 41.9717 18.0021 41.5096 16.5838 40.8844V35.2845C18.0021 36.1544 19.3932 36.8068 20.7024 37.2689C22.0389 37.7039 23.3209 37.9213 24.5483 37.9213C25.803 37.9213 26.7577 37.6767 27.4396 37.1874C28.0942 36.6981 28.4488 36.0185 28.4488 35.1214C28.4488 34.3059 28.2306 33.7079 27.7669 33.2729C27.3032 32.838 26.4031 32.4574 25.0666 32.104L22.8572 31.5331C20.6206 30.9895 19.0113 30.0924 17.9748 28.8963C16.9111 27.7274 16.3928 26.0964 16.3928 24.0576C16.3928 21.5023 17.102 19.5179 18.5476 18.1587C19.9932 16.7724 22.0389 16.0928 24.712 16.0928C25.9394 16.0928 27.1941 16.2015 28.476 16.419C29.7853 16.6093 31.1218 16.9355 32.5129 17.3704Z" fill="#A1C249"/>
<g opacity="0.96">
<mask id="mask0_11_266" style="mask-type:luminance" maskUnits="userSpaceOnUse" x="38" y="16" width="30" height="27">
<path d="M67.2623 16.5549H38.1317V42.2708H67.2623V16.5549Z" fill="white"/>
</mask>
<g mask="url(#mask0_11_266)">
<path d="M38.1317 16.5549H46.7236L52.8061 34.9855L58.6704 16.5549H67.235V42.2708H61.5071L61.7798 21.4752L54.879 42.2708H50.1876L43.1777 21.5296L43.3686 42.2708H38.1317V16.5549Z" fill="#A1C249"/>
</g>
</g>
<path d="M87.4465 36.5078L78.4182 36.4263L76.5089 42.2708H70.2354L79.1819 16.5549H86.6282L95.5747 42.2708H89.3013L87.4465 36.5078ZM79.9184 31.9138L85.9463 31.8594L82.946 22.5897L79.9184 31.9138Z" fill="#A1C249"/>
<path d="M105.039 32.539V42.2708H98.9569V16.5549H108.258C111.367 16.5549 113.659 17.1258 115.104 18.2675C116.55 19.4092 117.286 21.2034 117.286 23.6499C117.286 25.3625 116.904 26.7488 116.168 27.8362C115.404 28.9235 113.168 29.9837 111.667 30.5002C112.513 30.7177 113.304 31.4788 113.959 32.2128C114.613 32.9467 115.759 34.2244 116.441 35.6923L120.314 42.2708H113.822L110.467 36.3991C109.895 35.1214 109.022 34.0069 108.422 33.5448C107.822 33.0827 107.74 32.539 106.731 32.539H105.039ZM107.603 27.9449C108.885 27.9449 109.785 27.7003 110.358 27.1566C110.904 26.6401 111.177 25.7974 111.177 24.6013C111.177 23.4324 110.904 22.5897 110.358 22.1004C109.813 21.5839 108.885 21.3393 107.603 21.3393H105.039V27.9449H107.603Z" fill="#A1C249"/>
<path d="M120.259 16.5549H140.58V21.5567H133.27V42.2708H127.597V21.5567H120.259V16.5549Z" fill="#A1C249"/>
<path d="M17.102 45.5872H22.9118C25.0393 45.5872 26.6485 46.1037 27.7396 47.1095C28.8306 48.1152 29.3761 49.5832 29.3761 51.5404C29.3761 53.4976 28.8306 54.9927 27.7396 55.9985C26.6485 57.0043 25.0393 57.4936 22.9118 57.4936H19.6659V65.4857H17.102V45.5872ZM19.6659 47.8162V55.2918H22.9118C24.1119 55.2918 25.0393 54.9656 25.6939 54.3131C26.3485 53.6607 26.6758 52.7365 26.6758 51.5404C26.6758 50.3443 26.3485 49.4201 25.6939 48.7677C25.0393 48.1152 24.1119 47.789 22.9118 47.789H19.6659V47.8162Z" fill="#A1C249"/>
<path d="M41.3775 45.2065C44.2142 45.2065 46.4781 46.1308 48.1692 48.0065C49.8603 49.8822 50.7058 52.3831 50.7058 55.5364C50.7058 58.6625 49.8603 61.1906 48.1692 63.0391C46.4781 64.9148 44.2142 65.839 41.3775 65.839C38.5408 65.839 36.2769 64.9148 34.5585 63.0391C32.8674 61.1634 31.9946 58.6625 31.9946 55.5092C31.9946 52.3559 32.8401 49.855 34.5585 47.9793C36.2769 46.158 38.5408 45.2065 41.3775 45.2065ZM41.3775 47.4084C39.3863 47.4084 37.8043 48.1424 36.6587 49.5831C35.4859 51.051 34.9131 53.0355 34.9131 55.5364C34.9131 58.0373 35.4859 60.0217 36.6587 61.4896C37.8316 62.9575 39.4136 63.6643 41.3775 63.6643C43.3686 63.6643 44.9233 62.9304 46.0962 61.4896C47.2691 60.0217 47.8419 58.0373 47.8419 55.5364C47.8419 53.0083 47.2691 51.0239 46.0962 49.5831C44.9506 48.1424 43.3686 47.4084 41.3775 47.4084Z" fill="#A1C249"/>
<path d="M52.8062 45.5872H66.5805V47.8434H60.798V65.4857H58.5886V47.8434H52.8062V45.5872Z" fill="#A1C249"/>
<path d="M77.6544 45.2336C80.5184 45.2336 82.8096 46.1579 84.5279 48.0336C86.2463 49.9092 87.0919 52.4102 87.0919 55.5635C87.0919 58.6896 86.2463 61.2177 84.5279 63.0662C82.8096 64.9419 80.5184 65.8661 77.6544 65.8661C74.7905 65.8661 72.472 64.9419 70.7536 63.0662C69.0352 61.1905 68.1624 58.6896 68.1624 55.5363C68.1624 52.383 69.0352 49.8821 70.7536 48.0064C72.4993 46.1579 74.7905 45.2336 77.6544 45.2336ZM77.6544 47.4083C75.636 47.4083 74.054 48.1423 72.8811 49.583C71.7083 51.051 71.1082 53.0354 71.1082 55.5363C71.1082 58.0372 71.7083 60.0216 72.8811 61.4895C74.054 62.9575 75.6633 63.6642 77.6544 63.6642C79.6728 63.6642 81.2548 62.9303 82.4277 61.4895C83.6006 60.0216 84.1734 58.0372 84.1734 55.5363C84.1734 53.0082 83.5733 51.0238 82.4277 49.583C81.2548 48.1423 79.6728 47.4083 77.6544 47.4083Z" fill="#A1C249"/>
<path d="M91.0197 45.5872H93.3381V63.2294H101.657V65.4857H91.0197V45.5872Z" fill="#A1C249"/>
<path d="M112.568 45.2336C115.377 45.2336 117.614 46.1579 119.305 48.0336C120.996 49.9092 121.841 52.4102 121.841 55.5635C121.841 58.6896 120.996 61.2177 119.305 63.0662C117.614 64.9419 115.377 65.8661 112.568 65.8661C109.758 65.8661 107.494 64.9419 105.803 63.0662C104.112 61.1905 103.266 58.6896 103.266 55.5363C103.266 52.383 104.112 49.8821 105.803 48.0064C107.494 46.1579 109.731 45.2336 112.568 45.2336ZM112.568 47.4083C110.604 47.4083 109.022 48.1423 107.876 49.583C106.703 51.051 106.13 53.0354 106.13 55.5363C106.13 58.0372 106.703 60.0216 107.876 61.4895C109.049 62.9575 110.604 63.6642 112.568 63.6642C114.531 63.6642 116.086 62.9303 117.259 61.4895C118.405 60.0216 118.977 58.0372 118.977 55.5363C118.977 53.0082 118.405 51.0238 117.259 49.583C116.086 48.1423 114.531 47.4083 112.568 47.4083Z" fill="#A1C249"/>
<path d="M125.906 45.5872H128.306V54.0141L136.27 45.5872H139.353L130.542 54.8568L139.98 65.4857H136.816L128.306 55.917V65.4857H125.906V45.5872Z" fill="#A1C249"/>
<path d="M0 29.9565H4.14593V4.26785H56.9793V0H0V29.9565Z" fill="#A1C249"/>
<path d="M157 51.8938H152.854V77.5825H99.9934V81.8503H157V51.8938Z" fill="#A1C249"/>
<path d="M0 52.0295H4.14593V77.7182H56.9793V81.9589H0V52.0295Z" fill="#A1C249"/>
<path d="M157 30.0651H152.854V4.37649H99.9934V0.108643H157V30.0651Z" fill="#A1C249"/>
</g>
<defs>
<clipPath id="clip0_11_266">
<rect width="157" height="82" fill="white"/>
</clipPath>
</defs>
</svg>
