<svg width="25" height="25" viewBox="0 0 25 25" fill="none" xmlns="http://www.w3.org/2000/svg">
<path d="M21.875 8.3335L18.1658 10.3941C16.0979 11.543 15.064 12.1175 13.969 12.3427C12.9998 12.5419 12.0002 12.5419 11.031 12.3427C9.93608 12.1175 8.90211 11.543 6.83417 10.3941L3.125 8.3335M6.45833 19.7918H18.5417C19.7084 19.7918 20.2919 19.7918 20.7375 19.5647C21.1295 19.3651 21.4482 19.0463 21.6479 18.6543C21.875 18.2087 21.875 17.6253 21.875 16.4585V8.54183C21.875 7.37506 21.875 6.79166 21.6479 6.34602C21.4482 5.95401 21.1295 5.6353 20.7375 5.43557C20.2919 5.2085 19.7084 5.2085 18.5417 5.2085H6.45833C5.29156 5.2085 4.70817 5.2085 4.26252 5.43557C3.87051 5.6353 3.5518 5.95401 3.35207 6.34602C3.125 6.79166 3.125 7.37505 3.125 8.54183V16.4585C3.125 17.6253 3.125 18.2087 3.35207 18.6543C3.5518 19.0463 3.87051 19.3651 4.26252 19.5647C4.70817 19.7918 5.29155 19.7918 6.45833 19.7918Z" stroke="white" stroke-width="2" stroke-linecap="round" stroke-linejoin="round"/>
</svg>
