<svg width="329" height="93" viewBox="0 0 329 93" fill="none" xmlns="http://www.w3.org/2000/svg">
<path d="M116.103 42.1539H102.924V15.9341H94.5458V75.4519H102.924V51.1553H116.103V75.4519H124.481V15.9341H116.103V42.1539Z" fill="#898989"/>
<path d="M182.098 15.9341H171.163V24.9354H182.098V75.4519H190.476V24.9354H201.412V15.9341H190.476H182.098Z" fill="#898989"/>
<path d="M72.6258 15.9341H62.2042C56.3089 15.9341 51.5298 20.7198 51.5298 26.6221V64.7639C51.5298 70.6673 56.3089 75.453 62.2042 75.453H72.6258C78.5211 75.453 83.3002 70.6673 83.3002 64.7639V26.6221C83.3002 20.7198 78.5211 15.9341 72.6258 15.9341ZM74.9206 62.7358C74.9206 64.7873 73.2596 66.4506 71.211 66.4506H63.619C61.5704 66.4506 59.9095 64.7873 59.9095 62.7358V28.6513C59.9095 26.5998 61.5704 24.9366 63.619 24.9366H71.211C73.2596 24.9366 74.9206 26.5998 74.9206 28.6513V62.7358Z" fill="#898989"/>
<path d="M269.525 15.9341H259.103C253.208 15.9341 248.43 20.7198 248.43 26.6221V64.7639C248.43 70.6673 253.209 75.453 259.103 75.453H269.525C275.42 75.453 280.198 70.6673 280.198 64.7639V26.6221C280.198 20.7198 275.419 15.9341 269.525 15.9341ZM271.82 62.7358C271.82 64.7873 270.159 66.4506 268.11 66.4506H260.518C258.47 66.4506 256.809 64.7873 256.809 62.7358V28.6513C256.809 26.5998 258.47 24.9366 260.518 24.9366H268.11C270.159 24.9366 271.82 26.5998 271.82 28.6513V62.7358Z" fill="#898989"/>
<path d="M229.102 15.9341H218.057H209.678V26.6221V40.8387V75.453H218.057V51.5268H229.102C234.997 51.5268 239.775 46.7411 239.775 40.8387V26.6221C239.775 20.7198 234.996 15.9341 229.102 15.9341ZM231.397 38.8106C231.397 40.8621 229.736 42.5254 227.687 42.5254H218.057V38.8106V28.6513V24.9366H227.687C229.736 24.9366 231.397 26.5998 231.397 28.6513V38.8106Z" fill="#898989"/>
<path d="M155.19 15.9341H146.339C140.444 15.9341 135.665 20.7198 135.665 26.6221V64.7639C135.665 70.6673 140.444 75.453 146.339 75.453H155.19C161.085 75.453 165.863 70.6673 165.863 64.7639V60.0261H157.485V62.7347C157.485 64.7862 155.824 66.4494 153.775 66.4494H147.754C145.705 66.4494 144.044 64.7862 144.044 62.7347V28.6502C144.044 26.5987 145.705 24.9354 147.754 24.9354H153.775C155.824 24.9354 157.485 26.5987 157.485 28.6502V31.3588H165.863V26.621C165.864 20.7198 161.085 15.9341 155.19 15.9341Z" fill="#898989"/>
<path d="M311.665 15.9341V66.4506H301.672C299.623 66.4506 297.962 64.7873 297.962 62.7358V15.9341H289.584V64.7639C289.584 70.6673 294.363 75.453 300.257 75.453H320.043V15.9341H311.665Z" fill="#898989"/>
<path d="M296.997 8.39551H312.628C314.677 8.39551 316.338 6.73224 316.338 4.68075V0.770752H293.288V4.68075C293.288 6.73224 294.949 8.39551 296.997 8.39551Z" fill="#898989"/>
<path d="M39.6288 66.4506H39.5318V15.9341H19.746C13.8507 15.9341 9.07268 20.7198 9.07268 26.6233V66.4506H8.71618C4.46179 66.4506 1.01282 69.9043 1.01282 74.1646V75.366H47.3321V74.1646C47.3321 69.9032 43.8832 66.4506 39.6288 66.4506ZM31.1534 66.4506H17.4511V28.6513C17.4511 26.5998 19.1121 24.9366 21.1608 24.9366H31.1534V66.4506Z" fill="#898989"/>
</svg>
