<svg width="322" height="122" viewBox="0 0 322 122" fill="none" xmlns="http://www.w3.org/2000/svg">
<path d="M41.7971 3.13163V16.4577C38.6145 14.9252 35.5028 13.7259 32.5324 12.9263C29.4913 12.1267 26.6624 11.727 23.975 11.727C20.4388 11.727 17.8221 12.26 16.054 13.3261C14.3567 14.3922 13.508 16.0579 13.508 18.3234C13.508 19.9891 14.0738 21.3217 15.2054 22.2546C16.3369 23.1874 18.4586 23.9869 21.429 24.6533L27.794 26.0525C34.2297 27.4517 38.756 29.5839 41.5142 32.449C44.2016 35.3141 45.5454 39.3786 45.5454 44.709C45.5454 51.6386 43.6359 56.8358 39.8876 60.2339C36.1393 63.6321 30.34 65.2978 22.5605 65.2978C18.8829 65.2978 15.2054 64.898 11.5278 64.1651C7.85021 63.4322 4.17263 62.2994 0.495059 60.7669V47.0411C4.17263 49.1733 7.77949 50.7724 11.1742 51.9051C14.6396 52.9712 17.9635 53.5042 21.1461 53.5042C24.3993 53.5042 26.8746 52.9046 28.6427 51.7052C30.34 50.5059 31.2594 48.8401 31.2594 46.6413C31.2594 44.6424 30.6936 43.1765 29.4913 42.1104C28.289 41.0443 25.9552 40.1115 22.4898 39.2453L16.7613 37.8461C10.962 36.5135 6.78937 34.3147 4.10191 31.3829C1.34373 28.5178 0 24.52 0 19.5227C0 13.2595 1.83879 8.39543 5.58709 5.06391C9.33539 1.66576 14.6396 0 21.5704 0C24.7529 0 28.0062 0.266522 31.3301 0.799566C34.7248 1.26598 38.1902 2.06554 41.7971 3.13163Z" fill="white"/>
<g opacity="0.96">
<mask id="mask0_6_35" style="mask-type:luminance" maskUnits="userSpaceOnUse" x="56" y="1" width="76" height="64">
<path d="M131.897 1.13281H56.3656V64.1652H131.897V1.13281Z" fill="white"/>
</mask>
<g mask="url(#mask0_6_35)">
<path d="M56.3656 1.13281H78.6432L94.4144 46.3082L109.62 1.13281H131.827V64.1652H116.975L117.682 13.1929L99.7893 64.1652H87.625L69.4493 13.3262L69.9443 64.1652H56.3656V1.13281Z" fill="white"/>
</g>
</g>
<path d="M184.232 50.0395L160.823 49.8396L155.872 64.1652H139.606L162.803 1.13281H182.11L205.308 64.1652H189.041L184.232 50.0395ZM164.713 38.779L180.342 38.6457L172.563 15.9248L164.713 38.779Z" fill="white"/>
<path d="M229.848 40.3115V64.1652H214.077V1.13281H238.194C246.256 1.13281 252.197 2.53205 255.945 5.33053C259.693 8.129 261.603 12.5266 261.603 18.5233C261.603 22.7211 260.613 26.1192 258.703 28.7844C256.723 31.4497 250.924 34.0482 247.034 35.3142C249.226 35.8473 251.277 37.7129 252.975 39.5119C254.672 41.311 257.642 44.4426 259.41 48.0406L269.453 64.1652H252.621L243.922 49.773C242.437 46.6414 240.174 43.9095 238.618 42.7768C237.062 41.6441 236.85 40.3115 234.233 40.3115H229.848ZM236.496 29.051C239.82 29.051 242.154 28.4513 243.639 27.1187C245.054 25.8527 245.761 23.7872 245.761 20.8554C245.761 17.9903 245.054 15.9248 243.639 14.7254C242.225 13.4594 239.82 12.8598 236.496 12.8598H229.848V29.051H236.496Z" fill="white"/>
<path d="M269.312 1.13281H322V13.3928H303.046V64.1652H288.336V13.3928H269.312V1.13281Z" fill="white"/>
<path d="M1.83893 72.2939H16.9028C22.4192 72.2939 26.5918 73.5599 29.4207 76.0253C32.2496 78.4906 33.6641 82.0886 33.6641 86.886C33.6641 91.6834 32.2496 95.3481 29.4207 97.8134C26.5918 100.279 22.4192 101.478 16.9028 101.478H8.48685V121.067H1.83893V72.2939ZM8.48685 77.7576V96.081H16.9028C20.0146 96.081 22.4192 95.2814 24.1165 93.6823C25.8139 92.0832 26.6626 89.8177 26.6626 86.886C26.6626 83.9543 25.8139 81.6888 24.1165 80.0897C22.4192 78.4906 20.0146 77.691 16.9028 77.691H8.48685V77.7576Z" fill="white"/>
<path d="M64.7819 71.3611C72.137 71.3611 78.007 73.6265 82.3918 78.224C86.7766 82.8215 88.969 88.9515 88.969 96.6806C88.969 104.343 86.7766 110.54 82.3918 115.071C78.007 119.668 72.137 121.934 64.7819 121.934C57.4267 121.934 51.5568 119.668 47.1012 115.071C42.7164 110.473 40.4533 104.343 40.4533 96.614C40.4533 88.8849 42.6457 82.7549 47.1012 78.1574C51.5568 73.6931 57.4267 71.3611 64.7819 71.3611ZM64.7819 76.7581C59.6191 76.7581 55.5172 78.5572 52.5469 82.0886C49.5058 85.6866 48.0206 90.5506 48.0206 96.6806C48.0206 102.811 49.5058 107.675 52.5469 111.273C55.5879 114.871 59.6898 116.603 64.7819 116.603C69.9446 116.603 73.9758 114.804 77.0169 111.273C80.058 107.675 81.5431 102.811 81.5431 96.6806C81.5431 90.484 80.058 85.62 77.0169 82.0886C74.0465 78.5572 69.9446 76.7581 64.7819 76.7581Z" fill="white"/>
<path d="M94.4147 72.2939H130.13V77.8243H115.136V121.067H109.408V77.8243H94.4147V72.2939Z" fill="white"/>
<path d="M158.843 71.4275C166.269 71.4275 172.209 73.6929 176.665 78.2904C181.12 82.8879 183.313 89.0179 183.313 96.747C183.313 104.41 181.12 110.606 176.665 115.137C172.209 119.735 166.269 122 158.843 122C151.417 122 145.405 119.735 140.95 115.137C136.494 110.54 134.231 104.41 134.231 96.6804C134.231 88.9513 136.494 82.8213 140.95 78.2238C145.476 73.6929 151.417 71.4275 158.843 71.4275ZM158.843 76.7579C153.609 76.7579 149.507 78.5569 146.466 82.0884C143.425 85.6864 141.869 90.5504 141.869 96.6804C141.869 102.81 143.425 107.674 146.466 111.272C149.507 114.871 153.68 116.603 158.843 116.603C164.076 116.603 168.178 114.804 171.219 111.272C174.26 107.674 175.745 102.81 175.745 96.6804C175.745 90.4838 174.189 85.6198 171.219 82.0884C168.178 78.5569 164.076 76.7579 158.843 76.7579Z" fill="white"/>
<path d="M193.497 72.2939H199.508V115.537H221.079V121.067H193.497V72.2939Z" fill="white"/>
<path d="M249.368 71.4275C256.652 71.4275 262.451 73.6929 266.836 78.2904C271.221 82.8879 273.413 89.0179 273.413 96.747C273.413 104.41 271.221 110.606 266.836 115.137C262.451 119.735 256.652 122 249.368 122C242.083 122 236.213 119.735 231.829 115.137C227.444 110.54 225.251 104.41 225.251 96.6804C225.251 88.9513 227.444 82.8213 231.829 78.2238C236.213 73.6929 242.013 71.4275 249.368 71.4275ZM249.368 76.7579C244.276 76.7579 240.174 78.5569 237.203 82.0884C234.162 85.6864 232.677 90.5504 232.677 96.6804C232.677 102.81 234.162 107.674 237.203 111.272C240.245 114.871 244.276 116.603 249.368 116.603C254.46 116.603 258.491 114.804 261.532 111.272C264.502 107.674 265.988 102.81 265.988 96.6804C265.988 90.4838 264.502 85.6198 261.532 82.0884C258.491 78.5569 254.46 76.7579 249.368 76.7579Z" fill="white"/>
<path d="M283.951 72.2939H290.175V92.9494L310.826 72.2939H318.817L295.974 95.0149L320.444 121.067H312.24L290.175 97.6135V121.067H283.951V72.2939Z" fill="white"/>
</svg>
