<svg width="34" height="34" viewBox="0 0 34 34" fill="none" xmlns="http://www.w3.org/2000/svg">
<path d="M24.1959 10.4813C24.2025 10.4813 24.2112 10.4813 24.22 10.4813C24.4486 10.4813 24.6608 10.5523 24.8347 10.6748L24.8314 10.6727C24.9583 10.7831 25.0436 10.9384 25.0644 11.1134V11.1167C25.0862 11.2502 25.0983 11.4033 25.0983 11.5597C25.0983 11.6308 25.0961 11.7008 25.0906 11.7708V11.7609C24.8445 14.352 23.777 20.6356 23.2345 23.5363C23.0048 24.7645 22.5531 25.1758 22.1156 25.2152C21.1652 25.3038 20.4433 24.5873 19.5223 23.9836C18.0808 23.0375 17.2659 22.4491 15.867 21.527C14.2494 20.4628 15.2983 19.8755 16.2192 18.9195C16.4609 18.668 20.6511 14.8563 20.7331 14.5106C20.7375 14.4898 20.7397 14.4669 20.7397 14.4428C20.7397 14.3575 20.708 14.2798 20.6566 14.2208C20.5997 14.1836 20.5286 14.1628 20.4542 14.1628C20.405 14.1628 20.358 14.1727 20.3142 14.1891L20.3164 14.188C20.172 14.2208 17.8693 15.7426 13.4083 18.7533C12.9216 19.1372 12.3069 19.38 11.6375 19.4084H11.6309C10.6827 19.2936 9.82187 19.0825 9.00484 18.7817L9.08578 18.808C8.05984 18.4733 7.245 18.2972 7.315 17.7306C7.35219 17.436 7.75833 17.1345 8.53344 16.8261C13.308 14.7458 16.4919 13.3746 18.0852 12.7125C19.8428 11.7795 21.8805 11.0117 24.0231 10.5141L24.1948 10.4802L24.1959 10.4813ZM17.4234 0.621094C8.34313 0.642969 0.989843 8.00937 0.989843 17.093C0.989843 26.1897 8.36391 33.5648 17.4617 33.5648C26.5595 33.5648 33.9336 26.1908 33.9336 17.093C33.9336 8.00937 26.5803 0.642969 17.5022 0.621094H17.5C17.4745 0.621094 17.449 0.621094 17.4234 0.621094Z" fill="#569DD0"/>
</svg>
