<svg width="35" height="35" viewBox="0 0 35 35" fill="none" xmlns="http://www.w3.org/2000/svg">
<g clip-path="url(#clip0_11_312)">
<path d="M17.5 0.700195C8.2215 0.700195 0.699997 8.2217 0.699997 17.5002C0.699997 26.7787 8.2215 34.3002 17.5 34.3002C26.7785 34.3002 34.3 26.7787 34.3 17.5002C34.3 8.2217 26.7785 0.700195 17.5 0.700195ZM23.961 19.6544C23.961 19.6544 25.4467 21.1209 25.8125 21.8017C25.823 21.8157 25.8282 21.8297 25.8317 21.8367C25.9805 22.0869 26.0155 22.2812 25.942 22.4264C25.8195 22.6679 25.3995 22.7869 25.256 22.7974H22.631C22.449 22.7974 22.0675 22.7502 21.6055 22.4317C21.2502 22.1832 20.9002 21.7754 20.559 21.3782C20.0497 20.7867 19.6087 20.2757 19.1642 20.2757C19.1078 20.2756 19.0517 20.2845 18.998 20.3019C18.662 20.4104 18.2315 20.8899 18.2315 22.1674C18.2315 22.5664 17.9165 22.7957 17.6942 22.7957H16.492C16.0825 22.7957 13.9492 22.6522 12.0592 20.6589C9.74575 18.2177 7.66325 13.3212 7.64575 13.2757C7.5145 12.9589 7.78575 12.7892 8.0815 12.7892H10.7327C11.0862 12.7892 11.2017 13.0044 11.2822 13.1952C11.3767 13.4174 11.7232 14.3012 12.292 15.2952C13.2142 16.9157 13.7795 17.5737 14.2327 17.5737C14.3177 17.5727 14.4012 17.5511 14.476 17.5107C15.0675 17.1817 14.9572 15.0729 14.931 14.6354C14.931 14.5532 14.9292 13.6922 14.6265 13.2792C14.4095 12.9799 14.0402 12.8662 13.8162 12.8242C13.9069 12.6991 14.0264 12.5976 14.1645 12.5284C14.5705 12.3254 15.302 12.2957 16.0282 12.2957H16.4325C17.22 12.3062 17.423 12.3569 17.7082 12.4287C18.2857 12.5669 18.298 12.9397 18.2472 14.2154C18.2315 14.5777 18.2157 14.9872 18.2157 15.4702C18.2157 15.5752 18.2105 15.6872 18.2105 15.8062C18.193 16.4554 18.172 17.1922 18.6305 17.4949C18.6903 17.5324 18.7594 17.5525 18.83 17.5527C18.9892 17.5527 19.4687 17.5527 20.7672 15.3249C21.1677 14.6079 21.5157 13.8628 21.8085 13.0954C21.8347 13.0499 21.9117 12.9099 22.0027 12.8557C22.0699 12.8215 22.1444 12.804 22.2197 12.8049H25.3365C25.676 12.8049 25.9087 12.8557 25.9525 12.9869C26.0295 13.1952 25.9385 13.8304 24.5157 15.7572L23.8805 16.5954C22.5907 18.2859 22.5907 18.3717 23.961 19.6544Z" fill="#4697D0"/>
</g>
<defs>
<clipPath id="clip0_11_312">
<rect width="35" height="35" fill="white"/>
</clipPath>
</defs>
</svg>
