<svg width="35" height="36" viewBox="0 0 35 36" fill="none" xmlns="http://www.w3.org/2000/svg">
<path fill-rule="evenodd" clip-rule="evenodd" d="M17.4952 1.375C8.33011 1.375 0.875 8.83219 0.875 17.9999C0.875 21.6356 2.04751 25.0075 4.04068 27.7443L1.9692 33.9211L8.35933 31.8788C10.9876 33.6185 14.124 34.625 17.5048 34.625C26.6699 34.625 34.125 27.1675 34.125 18.0001C34.125 8.83249 26.6699 1.37527 17.5048 1.37527L17.4952 1.375ZM12.8539 9.81969C12.5315 9.04762 12.2872 9.01839 11.7989 8.99853C11.6326 8.98888 11.4473 8.97923 11.2418 8.97923C10.6065 8.97923 9.94218 9.16487 9.54151 9.57531C9.05314 10.0737 7.84145 11.2367 7.84145 13.6215C7.84145 16.0064 9.58066 18.3129 9.81505 18.6357C10.0594 18.9578 13.2058 23.9229 18.0911 25.9464C21.9114 27.5297 23.0451 27.3829 23.9145 27.1973C25.1847 26.9237 26.7775 25.985 27.1781 24.8516C27.5788 23.7177 27.5788 22.75 27.4613 22.5448C27.3441 22.3396 27.0215 22.2226 26.5331 21.978C26.0447 21.7336 23.6702 20.5607 23.2207 20.4043C22.7809 20.2383 22.3609 20.297 22.0289 20.7662C21.5598 21.421 21.1007 22.0858 20.7293 22.4863C20.4361 22.7991 19.9571 22.8383 19.5567 22.672C19.0193 22.4474 17.5148 21.9192 15.6581 20.2675C14.2217 18.9873 13.2447 17.3944 12.9615 16.9156C12.678 16.427 12.9322 16.1432 13.1567 15.8795C13.401 15.5764 13.6354 15.3615 13.8797 15.0779C14.124 14.7946 14.2608 14.6479 14.4172 14.3155C14.5835 13.9931 14.466 13.6607 14.3488 13.4163C14.2316 13.1719 13.2546 10.787 12.8539 9.81969Z" fill="#67C15E"/>
</svg>
